<svg width="25" height="31" viewBox="0 0 25 31" fill="none" xmlns="http://www.w3.org/2000/svg">
<g clip-path="url(#clip0_1_79)">
<path d="M13.3125 4.84627L24.1875 13.7421C24.4097 13.9227 24.5208 14.1449 24.5208 14.4088C24.5208 14.6727 24.4097 14.8949 24.1875 15.0754L13.3125 23.9713C13.0903 24.1518 12.8993 24.2074 12.7396 24.1379C12.5799 24.0685 12.5 23.8879 12.5 23.5963V17.5338C11.1944 17.5615 9.93056 17.7004 8.70833 17.9504C7.48611 18.2004 6.30208 18.5615 5.15625 19.0338C4.01042 19.506 2.98958 20.1484 2.09375 20.9609C1.19792 21.7734 0.5 22.7143 0 23.7838C0.0694444 22.3254 0.256944 20.9817 0.5625 19.7525C0.868056 18.5234 1.33681 17.3636 1.96875 16.2734C2.60069 15.1831 3.38542 14.2456 4.32292 13.4609C5.26042 12.6761 6.42014 12.0407 7.80208 11.5546C9.18403 11.0685 10.75 10.7768 12.5 10.6796V5.22127C12.5 4.9296 12.5799 4.74904 12.7396 4.6796C12.8993 4.61016 13.0903 4.66571 13.3125 4.84627Z" fill="black"/>
</g>
<defs>
<clipPath id="clip0_1_79">
<rect width="25" height="30" fill="white" transform="matrix(1 0 0 -1 0 30.69)"/>
</clipPath>
</defs>
</svg>
