<svg width="25" height="31" viewBox="0 0 25 31" fill="none" xmlns="http://www.w3.org/2000/svg">
<g clip-path="url(#clip0_1_145)">
<path d="M13.3125 4.34615L24.1875 13.242C24.4097 13.4225 24.5208 13.6448 24.5208 13.9086C24.5208 14.1725 24.4097 14.3948 24.1875 14.5753L13.3125 23.4711C13.0903 23.6517 12.8993 23.7073 12.7396 23.6378C12.5799 23.5684 12.5 23.3878 12.5 23.0961V17.0336C11.1944 17.0614 9.93056 17.2003 8.70833 17.4503C7.48611 17.7003 6.30208 18.0614 5.15625 18.5336C4.01042 19.0059 2.98958 19.6482 2.09375 20.4607C1.19792 21.2732 0.5 22.2142 0 23.2836C0.0694444 21.8253 0.256944 20.4816 0.5625 19.2524C0.868056 18.0232 1.33681 16.8635 1.96875 15.7732C2.60069 14.683 3.38542 13.7455 4.32292 12.9607C5.26042 12.176 6.42014 11.5406 7.80208 11.0545C9.18403 10.5684 10.75 10.2767 12.5 10.1795V4.72115C12.5 4.42948 12.5799 4.24892 12.7396 4.17948C12.8993 4.11003 13.0903 4.16559 13.3125 4.34615Z" fill="#17A2B8"/>
</g>
<defs>
<clipPath id="clip0_1_145">
<rect width="25" height="30" fill="white" transform="matrix(1 0 0 -1 0 30.1899)"/>
</clipPath>
</defs>
</svg>
