<svg width="27" height="28" viewBox="0 0 27 28" fill="none" xmlns="http://www.w3.org/2000/svg">
<g clip-path="url(#clip0_10_345)">
<path d="M13.4913 5.46997C8.66125 5.46997 4.75 9.38997 4.75 14.22C4.75 19.05 8.66125 22.97 13.4913 22.97C18.33 22.97 22.25 19.05 22.25 14.22C22.25 9.38997 18.33 5.46997 13.4913 5.46997ZM13.5 21.22C9.6325 21.22 6.5 18.0875 6.5 14.22C6.5 10.3525 9.6325 7.21997 13.5 7.21997C17.3675 7.21997 20.5 10.3525 20.5 14.22C20.5 18.0875 17.3675 21.22 13.5 21.22Z" fill="black"/>
<path d="M13.9375 9.84497H12.625V15.095L17.2188 17.8512L17.875 16.775L13.9375 14.4387V9.84497Z" fill="black"/>
</g>
<defs>
<clipPath id="clip0_10_345">
<rect width="21" height="21" fill="white" transform="translate(3 3.71997)"/>
</clipPath>
</defs>
</svg>
