<svg width="21" height="25" viewBox="0 0 21 25" fill="none" xmlns="http://www.w3.org/2000/svg">
<g clip-path="url(#clip0_1_29)">
<path d="M5.52979 3.29835C5.52979 3.29835 5.78256 3.19002 6.28812 2.97335C6.79367 2.75668 7.60201 2.64835 8.71312 2.64835C9.82423 2.64835 10.8853 2.86502 11.8965 3.29835C12.9076 3.73168 13.777 4.31224 14.5048 5.04002C15.2326 5.76779 15.8131 6.63724 16.2465 7.64835C16.6798 8.65946 16.8965 9.72057 16.8965 10.8317L16.8798 10.865L16.8965 10.9483C16.8965 12.515 16.4631 13.9706 15.5965 15.315L20.1798 19.8817C20.4353 20.1706 20.5603 20.4178 20.5548 20.6233C20.5492 20.8289 20.4242 21.065 20.1798 21.3317L19.1965 22.2984C18.9076 22.5206 18.6492 22.6317 18.4215 22.6317C18.1937 22.6317 17.9742 22.5206 17.7631 22.2984L13.1798 17.7317C11.8576 18.5872 10.4076 19.015 8.82979 19.015L8.74645 18.9983L8.71312 19.015C7.60201 19.015 6.5409 18.7983 5.52979 18.365C4.51867 17.9317 3.64923 17.3511 2.92145 16.6233C2.19367 15.8956 1.61312 15.0261 1.17979 14.015C0.746452 13.0039 0.529785 11.9428 0.529785 10.8317C0.529785 9.72057 0.746452 8.65946 1.17979 7.64835C1.61312 6.63724 2.19367 5.76779 2.92145 5.04002C3.64923 4.31224 4.51867 3.73168 5.52979 3.29835ZM11.4131 6.18168C11.4131 6.18168 11.2076 6.06224 10.7965 5.82335C10.3853 5.58446 9.6909 5.46502 8.71312 5.46502C7.73534 5.46502 6.83534 5.70391 6.01312 6.18168C5.1909 6.65946 4.5409 7.30946 4.06312 8.13168C3.58534 8.95391 3.34645 9.8539 3.34645 10.8317C3.34645 11.8095 3.58534 12.7095 4.06312 13.5317C4.5409 14.3539 5.1909 15.0039 6.01312 15.4817C6.83534 15.9595 7.73534 16.1983 8.71312 16.1983C9.6909 16.1983 10.5909 15.9595 11.4131 15.4817C12.2353 15.0039 12.8853 14.3539 13.3631 13.5317C13.8409 12.7095 14.0798 11.8095 14.0798 10.8317C14.0798 9.8539 13.8409 8.95391 13.3631 8.13168C12.8853 7.30946 12.2353 6.65946 11.4131 6.18168Z" fill="white"/>
</g>
<defs>
<clipPath id="clip0_1_29">
<rect width="20" height="24" fill="white" transform="matrix(1 0 0 -1 0.379883 24.69)"/>
</clipPath>
</defs>
</svg>
