<svg width="330" height="124" viewBox="0 0 330 124" fill="none" xmlns="http://www.w3.org/2000/svg">
<g clip-path="url(#clip0_16_321)">
<path d="M0 0.0365601H330V123.963H0V0.0365601Z" fill="#DF120B"/>
<path d="M144.214 22.9501H154.849L158.877 23.2728L163.55 23.9183L167.739 24.7251L172.09 25.8547L175.796 27.1456L179.18 28.7592L181.113 30.0501L181.758 30.5342V30.8569L182.402 31.1796L183.208 31.9865L183.853 32.7933L184.819 34.5683L184.98 35.0524V37.3114L184.336 38.7637L183.369 40.3773L182.563 41.1842L180.63 42.6364L178.052 44.0887L175.635 45.2182L171.284 46.6705L166.611 47.8L161.777 48.6069L157.266 49.0909L152.593 49.4137L145.986 49.575L134.868 53.2864L134.224 53.4478H132.612L132.129 53.125L131.968 52.1568V47.9614L129.873 47.316L125.361 46.025L122.3 44.8955L118.594 42.9591L116.338 41.1842L115.049 39.8932L114.082 38.2796L113.76 37.1501V34.891L114.404 33.2774L115.21 32.1478H115.532L115.854 31.5024L117.788 29.8887L119.561 28.7592L121.816 27.6297L125.684 26.1774L129.067 25.2092L133.418 24.241L138.574 23.4342L144.214 22.9501Z" fill="#FDFEFE"/>
<path d="M0 0.0365601H330V1.00474L329.517 1.1661H1.28906V121.866L2.41699 122.027L330 122.188V123.963H0V0.0365601Z" fill="#FDFEFE"/>
<path d="M188.364 32.1478L192.231 32.3092L198.032 32.9546L200.933 33.4387L204.8 34.2455L209.312 35.5365L213.34 37.1501L215.435 38.2796L217.207 39.5705L219.141 41.3455L220.269 42.9592L220.752 44.5728V46.3478L220.269 47.9614L218.979 49.7364H218.657L218.335 50.3819L216.079 51.9955L213.823 53.2864L210.923 54.5773L206.411 56.0296L202.866 56.9978L202.544 57.3205V62.1614L202.061 62.6455H200.127L197.549 61.8386L192.554 60.0637L189.009 58.9341L188.364 58.7727L182.241 58.6114L175.151 58.1273L169.512 57.3205L165 56.3523L162.261 55.5455L158.555 54.2546L155.493 52.8023L153.721 51.6728L152.754 51.1887V50.866L158.555 50.3819L163.872 49.7364L168.384 48.9296L173.057 47.8001L177.891 46.1864L178.535 45.8637H180.146L180.952 46.5091L182.886 47.1546L184.175 47.316H186.27L187.881 46.9932L189.653 46.3478L190.942 45.541L190.62 44.8955L189.009 44.0887L187.397 43.6046L184.175 43.2819V42.7978L185.625 41.8296L187.075 40.5387L188.203 38.7637L188.525 37.9569L188.687 36.9887V35.0524L188.364 33.6001L187.72 32.7933V32.3092L188.364 32.1478Z" fill="#FDFEFE"/>
<path d="M137.607 27.4683H142.925L147.275 28.1137L149.692 28.7592L151.626 29.566L153.237 30.5342L154.204 31.341V31.8251L159.199 32.6319L162.261 33.4387L168.062 35.5364L170.64 36.666L171.929 37.6342L172.573 38.441L172.734 38.9251V40.3773L172.251 41.1842L170.479 42.4751L167.739 43.6046L164.355 44.4114L160.166 44.8955H137.769L135.674 44.5728L132.29 43.4432L127.939 41.8296L126.328 40.8614L126.006 39.0864V36.1819L126.167 31.9865L126.65 31.1796L127.939 30.0501L130.356 28.9206L133.096 28.1137L135.996 27.6297L137.607 27.4683Z" fill="#FEFEFE"/>
<path d="M0 0.0365601H330V1.00474L329.517 1.1661H1.28906L1.12793 121.543H0V0.0365601Z" fill="#FDFEFE"/>
<path d="M137.607 27.4683H142.925L147.275 28.1137L149.692 28.7592L151.626 29.566L153.237 30.5342L154.204 31.341V31.8251L159.199 32.6319L162.261 33.4387L168.062 35.5364L170.64 36.666L171.929 37.6342L172.573 38.441L172.734 38.9251V40.3773L172.251 41.1842L170.479 42.4751L167.739 43.6046L164.355 44.4114L160.166 44.8955H137.769L135.674 44.5728L132.29 43.4432L127.939 41.8296L126.328 40.8614L126.006 39.0864V36.1819L126.167 31.9865L126.65 31.1796L127.939 30.0501L130.356 28.9206L133.096 28.1137L135.996 27.6297L137.607 27.4683ZM137.607 28.9206L134.385 29.566L131.807 30.5342L130.356 31.6637L130.034 32.1478L129.873 39.8933L130.195 40.5387L131.646 41.1842L150.981 41.3455L155.171 41.1842L158.071 40.7001L160.649 39.8933L162.1 39.0864L163.066 38.1183L163.228 36.9887L162.583 36.0205L161.616 35.2137L159.36 34.2455L157.266 33.7615L152.754 33.4387L150.82 32.9546L150.498 31.6637L149.209 30.6956L147.437 29.8887L144.858 29.2433L142.441 28.9206H137.607Z" fill="#DE120B"/>
<path d="M106.509 74.5863H111.343L112.471 75.5545L114.082 78.9431L114.888 78.7818L115.854 77.1681L116.499 75.7159L117.144 74.9091L117.788 74.5863H122.622L122.783 74.7477L122.944 78.2977L124.072 78.6204V79.1045L122.944 79.4272V82.9772L122.783 83.1386H118.916L118.594 82.8159V80.7181L117.466 80.8795L117.144 82.1704L116.338 82.9772L115.854 83.1386H113.115L111.826 82.009L111.182 80.5568H110.215L110.054 82.9772L109.731 83.1386H106.187L106.025 82.9772V79.2659L104.575 79.1045L104.736 78.459H106.025V74.7477L106.509 74.5863Z" fill="#FDFEFE"/>
<path d="M0 0.682007L0.644531 1.32746L0.805664 3.26382L0.966797 3.58654L1.12793 121.543H0V0.682007Z" fill="#F1FFFE"/>
<path d="M217.529 74.425H219.624L220.591 74.7477L221.719 75.8772L223.169 77.6522L223.491 77.9749L224.458 78.1363V74.909L224.619 74.5863L225.264 74.425H227.681L228.647 74.5863L228.809 78.2977L230.098 78.459V79.1045L228.647 79.2659V83.1386L228.164 83.2999H224.78L223.169 82.1704L221.719 80.5568L220.752 79.7499L219.946 79.5886V82.9772L219.463 83.2999H216.24L215.757 83.1386L215.596 82.8158V79.1045H214.307V78.459H215.596V75.0704L215.757 74.5863L217.529 74.425Z" fill="#FDFEFE"/>
<path d="M143.247 74.425H145.342L146.631 75.3931L148.081 77.0068L148.403 77.8136L149.854 77.9749L150.015 74.7477L150.337 74.5863H154.043L154.204 74.7477V78.2977L155.493 78.459V79.1045L154.365 79.4272V82.9772L154.204 83.1386H149.854L148.564 82.1704L146.631 80.0727L145.825 79.5886H145.342V82.9772L145.181 83.1386H141.152L140.991 82.8158V79.5886L140.83 79.2659L139.702 79.1045L139.541 78.6204L140.991 78.1363V75.7159L141.313 74.5863L143.247 74.425Z" fill="#FDFEFE"/>
<path d="M176.118 74.5863H181.436L181.597 74.7477L181.758 76.0386L182.563 76.3613L183.047 77.975L184.98 78.7818V79.1045L183.853 79.4272L184.014 80.234L184.819 81.5249L184.98 83.1386L182.886 83.2999L180.791 83.1386L180.308 82.3318L180.146 81.5249H177.085L176.602 82.8159L175.957 83.1386H172.09L171.768 82.6545L172.573 81.3636L172.734 80.7181L173.54 79.75L173.701 79.4272L172.573 79.2659L172.412 78.7818L173.701 78.1363L174.668 77.0068L175.312 75.3931L176.118 74.5863Z" fill="#FEFEFE"/>
<path d="M278.438 74.425H282.305L282.144 74.909L281.177 75.5545L278.276 77.6522L277.632 77.9749L278.276 78.6204L279.565 79.7499L281.338 81.3636L282.627 82.4931L282.788 83.1386H278.438L277.471 82.4931L275.859 80.8795L275.537 80.7181L274.087 80.5568L274.409 82.009L274.087 83.1386L272.476 83.2999H270.864L270.22 83.1386L270.059 82.1704L270.22 79.2659L268.931 79.1045L268.608 78.6204L269.575 78.2977H270.22L270.059 75.5545L270.22 74.5863H274.248V75.7159L273.926 76.5227L275.537 76.0386L277.148 74.909L277.632 74.5863L278.438 74.425Z" fill="#FEFEFE"/>
<path d="M260.229 74.2636L263.13 74.425L265.063 74.909L266.675 75.7159L267.319 76.5227L267.158 77.0068L266.353 77.3295H264.419L262.969 77.0068L262.002 76.3613L261.519 76.2H260.391L259.907 76.3613L259.746 76.684V81.2022L260.391 81.5249H262.163L263.13 80.8795L262.969 80.234L261.035 79.4272L260.874 79.2659V78.2977L261.519 77.9749L266.675 78.1363L267.158 78.7818V81.3636L266.836 82.009L265.225 82.8158L263.13 83.2999H259.424L256.685 82.6545L255.396 81.8477L255.234 81.2022L255.396 79.5886L253.945 78.9431V78.6204L255.396 78.1363L255.234 76.2L256.523 75.2318L258.296 74.5863L260.229 74.2636Z" fill="#FEFEFE"/>
<path d="M191.265 74.425H194.648L197.227 75.0704L198.516 75.7159L198.838 76.0386V77.1681L198.516 77.3295H195.293L194.487 77.0068L194.165 76.3613L193.843 76.2H192.07L191.265 76.684L191.104 80.234L191.265 81.2022L192.07 81.5249H193.843L194.487 81.2022L194.648 80.234L193.198 79.5886L192.715 79.2659L192.876 78.2977L193.037 78.1363H198.354L198.838 78.6204L198.999 80.5568L198.677 82.009L197.065 82.8158L194.971 83.2999L192.554 83.4613L190.137 83.1386L188.203 82.4931L187.236 81.6863V79.5886L186.108 79.2659V78.6204L187.236 78.1363V77.0068L187.075 76.5227L187.559 75.7159L188.848 75.0704L190.298 74.5863L191.265 74.425Z" fill="#FEFEFE"/>
<path d="M237.671 74.1022H239.927L242.505 74.5863L244.761 75.7159V76.2L244.6 76.3613L243.472 76.5227H240.732L239.443 75.8772H238.154L237.832 76.2L236.865 76.3613V76.684L237.832 77.0068L239.282 77.6522L241.216 78.1363L243.794 79.5886L244.6 80.234L244.922 81.3636L244.277 82.1704L242.666 82.9772L240.41 83.2999H237.832L235.254 82.9772L233.32 82.1704L232.354 81.2022V80.8795L232.837 80.7181L235.576 80.5568L236.704 80.8795L238.315 81.6863H239.604L240.571 81.2022V80.5568L239.121 80.0727L237.188 79.5886L235.737 79.2659L235.415 78.6204L233.159 77.4909L232.515 76.684L232.676 76.0386L233.643 75.2318L235.898 74.425L237.671 74.1022Z" fill="#FEFEFE"/>
<path d="M163.228 74.1022H165.322L167.578 74.5863L169.512 75.3931L170.317 75.8772L169.995 76.3613L168.867 76.5227H166.772L165.483 76.2L164.517 75.8772L163.228 76.0386L162.261 76.3613L162.422 76.684L164.517 77.6522L166.611 78.1363L169.189 79.5886L170.317 80.5568V81.5249L169.028 82.4931L167.578 83.1386L166.289 83.2999H163.389L160.811 82.9772L159.199 82.3318L157.749 81.3636L157.588 80.8795L157.91 80.7181L160.811 80.5568L161.938 80.8795L163.066 81.5249L164.517 81.6863L165.645 81.3636L166.128 81.2022L165.322 80.3954L163.711 79.7499L161.294 79.4272L160.972 79.2659L160.811 78.6204L158.877 77.6522L157.91 76.8454L158.071 76.0386L159.36 75.0704L161.455 74.425L163.228 74.1022Z" fill="#FEFEFE"/>
<path d="M202.061 74.5863H212.373L212.856 74.9091L212.695 75.5545L212.373 75.7159L208.345 75.8772L206.411 76.0386L206.25 77.8136L207.539 77.975L210.601 78.1363L211.245 78.2977V79.1045L210.762 79.4272L207.378 79.75L206.572 80.0727L206.25 80.5568L206.411 81.3636L207.7 81.6863L212.695 81.8477L212.856 82.009L212.695 83.1386L210.762 83.2999H202.061L201.899 83.1386L201.738 79.4272L200.933 79.1045V78.6204L201.738 78.2977L201.899 74.9091L202.061 74.5863Z" fill="#FEFEFE"/>
<path d="M127.295 74.5863H137.607L138.252 74.9091L138.091 75.5545L137.769 75.7159L131.807 75.8772V77.8136L132.612 77.975L136.157 78.1363L136.641 78.6204L136.479 79.4272L135.513 79.5886L131.968 79.75L131.646 80.5568V81.3636L132.29 81.6863L137.769 81.8477L138.252 82.1704V83.1386L132.129 83.2999H127.617L127.295 83.1386V79.2659L126.006 79.1045V78.6204L127.295 78.459V74.5863Z" fill="#FEFEFE"/>
<path d="M92.3291 74.5863H102.319L103.125 74.9091V75.5545L102.642 75.7159L96.6797 76.0386L96.5186 77.975H98.291L101.03 78.1363L101.353 78.2977V79.2659L101.191 79.4272L99.9023 79.5886L96.5186 79.75L96.6797 81.5249L98.1299 81.6863L102.642 81.8477L103.286 82.1704L102.964 82.9772L102.642 83.1386H92.3291L92.168 82.9772V79.2659L90.7178 79.1045L90.8789 78.459H92.168V74.7477L92.3291 74.5863Z" fill="#FEFEFE"/>
<path d="M65.4199 74.5863H75.8936L76.0547 74.7477V75.5545L75.4102 75.7159L69.7705 75.8772V77.8136L70.415 77.975L74.2822 78.1363L74.6045 78.459L74.4434 79.2659L74.2822 79.4272L69.9316 79.75L69.7705 80.0727V81.3636L70.7373 81.6863L75.8936 81.8477L76.2158 82.3318L76.0547 83.1386H65.4199L65.2588 82.9772V79.2659H64.1309L63.9697 78.6204L65.2588 78.459V74.7477L65.4199 74.5863Z" fill="#FEFEFE"/>
<path d="M54.7852 74.425H57.8467L62.6807 74.5863L63.0029 75.0704L62.6807 75.5545L61.3916 75.8772L59.2969 76.0386L58.9746 76.2L58.8135 78.2977L60.4248 78.459V79.1045L58.9746 79.2659V82.9772L58.8135 83.1386H54.7852L54.4629 82.9772L54.624 79.2659H53.335L52.8516 79.1045V78.6204L54.3018 78.2977H54.624V76.0386L51.7236 75.8772L50.7568 75.3931V74.5863L54.7852 74.425Z" fill="#FDFEFE"/>
<path d="M79.2773 74.5863H83.3057L83.4668 74.7477V78.2977L84.7559 78.459L84.917 79.1045L83.4668 79.2659V80.5568L83.6279 81.5249L84.7559 81.6863L89.2676 81.8477L89.5898 82.3318L89.2676 83.1386H79.2773V79.2659H78.1494L77.8271 79.1045V78.459L79.1162 78.2977L79.2773 74.5863Z" fill="#FDFEFE"/>
<path d="M166.934 37.6342L167.739 37.7955L168.867 38.441L169.028 40.0546L168.062 41.1842L166.772 41.991L164.194 42.7978L161.133 43.2819L159.199 43.4432H138.735L136.641 43.1205L136.318 42.9592V42.6364L155.171 42.4751L159.038 41.991L162.744 41.0228L165.322 39.7319L166.45 38.9251L166.934 37.6342Z" fill="#FEFEFE"/>
<path d="M201.738 74.5863H201.899V78.2977L200.933 78.6204V79.1045L201.738 79.2659V82.6545L201.255 82.9772L200.449 82.8159V82.4931L198.999 82.1704H198.838V79.5886L198.516 78.459L198.354 78.2977H193.037L192.876 79.2659L194.487 79.9113L194.81 80.234L194.648 81.2022L193.843 81.6863H192.07L191.104 81.2022L190.942 80.234L191.104 76.6841L191.587 76.2L192.07 76.0386H193.843L194.487 76.6841L194.648 77.0068L195.293 77.1681H198.838L198.677 75.7159L199.16 75.8772L199.321 76.6841L199.805 76.5227L200.771 75.0704L201.738 74.5863Z" fill="#CA0F10"/>
<path d="M270.22 74.1022H271.67L271.831 74.425L270.381 74.5863L270.22 76.3613V78.2977L268.77 78.7818L270.22 79.2659V82.1704L270.059 82.9772H269.897L269.575 81.3636L269.736 80.8795L268.125 81.2022L267.158 82.009L266.997 81.3636V78.7818L266.675 78.2977L261.519 78.1363L261.035 78.2977V79.2659L262.969 80.0727L263.291 80.3954L263.13 81.0408L262.163 81.6863H260.391L259.585 81.2022V76.684L259.907 76.2L260.391 76.0386H261.519L262.808 76.684L263.291 77.0068L264.419 77.1681H266.353L267.158 77.0068V76.0386L268.286 76.2L269.253 75.7159L269.575 75.3931L270.22 74.1022Z" fill="#CB0F10"/>
<path d="M198.032 43.2819H200.449L202.383 43.6046L204.316 44.4114L205.122 45.3796L204.8 46.025L202.544 47.1546L201.899 47.316L198.999 47.4773L196.582 47.1546L194.648 46.1864L194.004 45.541L194.165 44.8955L195.293 44.0887L197.065 43.4432L198.032 43.2819Z" fill="#DF120B"/>
<path d="M211.084 44.7341H212.695L213.823 45.0569L213.984 45.2182L213.823 46.5091L213.179 47.8L212.051 49.2523L209.956 50.8659L207.539 52.1568L204.8 53.125H203.188L202.061 52.6409L202.222 52.1568L206.25 50.2205L207.861 49.091L208.345 48.6069H208.667L208.989 47.9614L209.956 46.5091L210.439 45.0569L211.084 44.7341Z" fill="#DE120B"/>
<path d="M168.867 94.7567H171.284L173.862 94.9181L174.99 95.4022L175.957 96.3703V97.1772L175.151 97.984L173.54 98.4681H168.706L166.934 98.3067L166.772 98.1453V95.0794L166.934 94.9181L168.867 94.7567Z" fill="#FDFEFE"/>
<path d="M92.0068 74.1022H94.1016L94.585 74.425L92.4902 74.5863L92.3291 74.7477V77.1681L92.168 78.459L90.8789 78.6204L90.7178 79.1045L92.168 79.2659L92.3291 82.9772H102.642L103.608 82.8158L103.286 83.4613L102.642 83.6227H93.1348L92.0068 83.4613L91.5234 82.9772L90.3955 83.2999L88.3008 83.784L80.083 83.6227L79.5996 83.2999H89.2676L89.4287 82.1704L89.2676 82.009L84.7559 81.8477L83.6279 81.6863L83.3057 80.5568V79.2659L83.4668 79.1045H85.0781L84.5947 79.4272L83.7891 79.7499L83.9502 81.3636H86.0449L88.3008 81.2022H89.4287L89.9121 80.7181L89.5898 79.1045L90.7178 78.1363L90.5566 77.9749V76.3613L90.8789 74.909L91.5234 74.2636L92.0068 74.1022Z" fill="#CC0F10"/>
<path d="M128.101 30.2115L128.423 30.3728L127.778 31.0183L127.617 31.9865L128.423 32.3092L129.067 32.6319L129.551 32.1478V40.0546L130.518 41.0228L129.712 40.8614L129.067 40.3773L127.778 40.7001L126.973 40.216L127.134 40.8614L126.65 40.5387V31.9865L127.939 30.3728L128.101 30.2115Z" fill="#C90F10"/>
<path d="M51.0791 94.9181H52.6904L53.9795 95.4022L54.7852 96.0476V96.3704L55.4297 96.6931L56.5576 97.3385H57.3633L58.9746 95.8863L60.4248 94.9181H62.0361L62.6807 95.0795L62.8418 95.4022V98.1454L61.3916 98.3067L60.9082 97.984V96.209L59.7803 96.6931L58.6523 97.8226L57.6855 98.3067H55.752L54.7852 97.6613L53.335 96.3704L52.6904 96.209V97.984L52.3682 98.3067H50.918L50.7568 98.1454V96.3704L50.918 95.0795L51.0791 94.9181Z" fill="#FDFEFE"/>
<path d="M226.553 94.9181H233.159L234.448 95.2408L235.093 95.8863L234.771 96.5317L233.643 97.0158H233.159V97.4999L234.771 97.984L234.932 98.3067H233.32L230.42 97.3385H227.842L228.003 98.3067H226.553L226.392 98.1454V95.0795L226.553 94.9181Z" fill="#FDFEFE"/>
<path d="M131.968 94.7567L133.257 95.0794H133.579V97.984L135.513 98.3067V98.6294H133.901L133.418 98.4681V98.1453H133.096V96.6931L132.129 96.8544V97.984L128.584 98.1453L125.361 97.984V96.6931L130.034 96.5317L125.361 96.3703V95.4022L125.522 95.2408L131.968 95.0794V94.7567Z" fill="#CC0F10"/>
<path d="M276.665 94.9181H278.76L280.532 95.0795L281.499 95.5635L281.982 96.3704L281.821 97.3385L280.532 97.984L279.727 98.1454H276.665L275.054 97.8226L274.57 97.3385V95.5635L275.537 95.0795L276.665 94.9181Z" fill="#DE120B"/>
<path d="M182.241 94.9181H184.819L186.753 95.2408L187.559 96.0476L187.72 96.8544L186.914 97.6613L186.27 97.984L185.142 98.1454H183.047L180.952 97.8226L180.146 97.0158L180.308 95.8863L180.791 95.4022L182.241 94.9181Z" fill="#DE120B"/>
<path d="M215.757 94.9181H219.141L220.591 95.2408L221.88 96.209V97.0158L220.591 97.8226L218.818 98.1454L215.273 97.984L214.629 97.6613L214.146 97.0158L214.307 95.8863L215.757 94.9181Z" fill="#DF120B"/>
<path d="M192.07 76.0386H193.843L194.487 76.684L194.648 77.0068L195.293 77.1681L198.516 77.3295V77.4909L195.293 77.6522L198.516 77.9749H198.838L199.482 77.8136L199.321 78.9431L198.838 79.5886L198.516 78.459L198.354 78.2977H193.037L192.876 79.2659L194.487 79.9113L194.81 80.234L194.648 81.2022L193.843 81.6863H192.07L191.104 81.2022L190.942 80.234L191.104 76.684L191.587 76.2L192.07 76.0386Z" fill="#DD120B"/>
<path d="M139.058 29.566L141.313 29.7274L141.958 30.3728L140.991 30.8569L137.93 31.341L136.318 31.9865L135.674 32.4705L135.352 33.116L134.546 33.6001H132.773L131.968 33.116L131.807 32.4705L132.129 31.8251L133.901 30.6956L135.513 30.0501L137.124 29.7274L139.058 29.566Z" fill="#DE120B"/>
<path d="M105.703 74.2636H107.637L107.959 74.5863L106.025 74.7477V78.459L104.736 78.6204L104.575 79.1045L106.025 79.2659L106.187 82.9772L110.054 83.1386L109.57 83.4613L107.798 83.784L105.864 83.2999L105.381 82.6545L104.897 82.4931L104.736 82.1704L104.575 80.3954L103.931 79.5886L104.092 78.7818L104.253 78.2977V76.2L101.675 76.3613L97.4854 76.0386V75.8772L103.286 75.5545L103.447 74.909L103.608 75.5545L104.575 75.0704L105.703 74.2636Z" fill="#CB0F10"/>
<path d="M133.74 94.9181H135.19L137.607 95.8863L139.541 96.8544L140.991 97.3385L140.83 95.7249V95.0795L142.119 94.9181L142.764 95.0795V98.3067L141.958 98.4681L140.186 98.1454L135.996 96.209L135.352 96.0476V98.1454L135.19 98.3067H134.062L133.418 97.984L133.579 95.0795L133.74 94.9181Z" fill="#FEFEFE"/>
<path d="M181.113 94.5954H186.592L188.203 95.0794L189.492 96.209L189.653 96.8544L188.203 97.984L186.592 98.4681H180.952L179.341 97.984L178.374 97.1772V96.0476L179.18 95.2408L180.308 94.7567L181.113 94.5954ZM182.241 94.9181L180.791 95.4022L180.308 95.8863L180.146 97.0158L180.952 97.8226L183.047 98.1453H185.142L186.592 97.8226L187.559 97.1772L187.72 96.209L186.914 95.4022L186.108 95.0794L184.819 94.9181H182.241Z" fill="#FEFEFE"/>
<path d="M76.5381 94.9181L78.3105 95.0795L80.2441 95.8863L82.8223 97.1772L83.7891 97.4999L83.4668 95.2408L83.6279 95.0795H85.2393L85.4004 95.5635V98.1454L85.2393 98.3067H83.1445L79.4385 96.5317L77.9883 95.8863V98.1454L77.8271 98.3067H76.5381L76.0547 98.1454V95.5635L76.2158 95.0795L76.5381 94.9181Z" fill="#FDFEFE"/>
<path d="M214.951 94.5954H220.591L221.88 94.9181L223.008 95.7249L223.33 96.3703V97.1772L222.524 97.8226L221.396 98.3067L220.43 98.4681H214.79L213.34 97.984L212.373 97.0158L212.534 95.8863L213.501 95.0794L214.951 94.5954ZM215.757 94.9181L214.307 95.8863L214.146 97.0158L214.951 97.8226L215.273 97.984L218.979 98.1453L220.591 97.8226L221.88 97.0158V96.209L220.591 95.2408L219.141 94.9181H215.757Z" fill="#FDFEFE"/>
<path d="M275.698 94.5954H280.693L282.466 95.0794L283.755 96.209L283.916 96.6931L283.11 97.4999L282.144 98.1453L280.693 98.4681H275.215L273.765 98.1453L272.637 97.1772L272.476 96.0476L273.442 95.2408L274.731 94.7567L275.698 94.5954ZM276.665 94.9181L275.054 95.2408L274.57 95.5635V97.3385L275.054 97.8226L276.665 98.1453H279.727L281.338 97.6613L281.982 97.0158L281.821 96.0476L281.016 95.2408L280.532 95.0794L278.76 94.9181H276.665Z" fill="#FEFEFE"/>
<path d="M260.391 76.0386H261.519L262.808 76.684L263.291 77.0068L264.419 77.1681V77.3295H263.452V77.6522H264.258V77.8136L266.675 77.9749V78.1363H261.519L261.035 78.2977V79.2659L262.969 80.0727L263.291 80.3954L263.13 81.0408L262.163 81.6863H260.391L259.585 81.2022V76.684L259.907 76.2L260.391 76.0386Z" fill="#CE0F0F"/>
<path d="M265.225 94.9181H266.836L267.803 95.5635L269.575 97.1772L270.703 98.1454V98.3067H269.253L267.964 97.6613L267.803 97.4999L263.936 97.3385L262.808 98.3067L261.357 98.4681L261.035 98.3067V97.984L262.646 96.8544L264.258 95.4022L265.225 94.9181Z" fill="#FDFEFE"/>
<path d="M103.286 94.9181H104.897L106.348 95.8863L107.476 97.0158L109.087 98.1454V98.3067H107.314L106.187 97.4999H102.158L100.869 98.3067H99.0967L99.7412 97.6613L101.353 96.3704L102.642 95.2408L103.286 94.9181Z" fill="#FDFEFE"/>
<path d="M241.699 94.9181H243.149L244.277 95.5635L246.533 97.4999L247.178 97.8226L247.339 98.3067H245.728L244.761 97.6613L243.794 97.3385L240.41 97.4999L239.604 98.1454L237.993 98.4681V97.8226L239.443 96.6931L240.571 95.5635L241.699 94.9181Z" fill="#FDFEFE"/>
<path d="M114.404 94.5954H120.044L120.366 94.9181L119.561 95.0794H115.854L113.76 95.4022L112.793 96.209V97.1772L113.438 97.6613L114.082 97.8226H118.594L119.238 97.6613L119.399 97.0158L116.016 96.6931L116.177 96.3703H118.11L120.527 96.5317L120.85 96.8544V97.984L120.044 98.3067L118.433 98.4681H113.438L111.826 97.984L111.182 97.1772L111.021 96.5317L111.504 95.5635L112.148 95.0794L114.404 94.5954Z" fill="#FEFEFE"/>
<path d="M187.075 31.9865L187.397 32.1478L187.236 32.7933L187.72 33.6001L188.203 35.0523V37.1501L187.72 38.7637L186.914 40.0546L186.592 40.216L186.914 39.4092L186.27 39.5705L185.625 38.9251L186.108 36.5046L185.786 35.6978L185.464 38.2796L184.98 39.4092H184.497L184.98 38.7637L185.303 37.1501L185.464 35.3751H185.786L185.625 34.891V33.7614L186.108 32.7933L186.753 32.6319L187.075 31.9865Z" fill="#C90F10"/>
<path d="M168.867 95.2408H171.768L173.379 95.5635L174.507 96.3704L174.346 97.1772L173.218 97.984H169.189L168.545 97.6613V95.5635L168.867 95.2408Z" fill="#DF120B"/>
<path d="M68.3203 94.7567H73.3154L74.2822 94.9181L74.1211 95.2408L68.1592 95.4022L67.8369 96.3703H72.6709L72.5098 96.6931H67.8369L67.998 97.8226L74.4434 97.984V98.3067L72.5098 98.4681H68.4814L66.0645 98.3067L65.9033 98.1453V95.0794L66.0645 94.9181L68.3203 94.7567Z" fill="#FDFEFE"/>
<path d="M127.134 94.7567H129.229L131.968 94.9181L131.646 95.2408L125.522 95.4022L125.361 96.3703H130.034L130.195 96.6931H125.361V97.984H131.968V98.3067L130.195 98.4681H125.684L123.428 98.3067L123.267 98.1453V95.0794L123.428 94.9181L127.134 94.7567Z" fill="#FDFEFE"/>
<path d="M251.851 94.5954H258.296L258.457 94.9181L258.135 95.0794H252.656L251.528 95.7249L251.045 95.8863L250.884 96.6931L251.689 97.6613L252.979 97.984H258.457V98.3067L258.135 98.4681L254.429 98.6294L255.396 99.1135V99.4362H253.462V98.9522L251.851 98.4681L250.4 98.1453L249.595 97.6613L249.272 97.0158V95.8863L250.239 95.0794L251.851 94.5954Z" fill="#FDFEFE"/>
<path d="M147.92 94.5954H153.882L154.204 94.9181L153.398 95.0794H149.531L147.598 95.4022L147.275 95.7249L149.209 96.209L152.915 96.5317L154.526 97.1772V97.8226L153.398 98.3067L152.432 98.4681H147.114L145.664 98.3067V97.8226L149.048 97.984H151.304L152.915 97.6613L152.754 97.1772L149.854 96.8544L146.792 96.5317L145.825 96.0476L145.664 95.5635L146.47 94.9181L147.92 94.5954Z" fill="#FDFEFE"/>
<path d="M90.7178 94.5954H95.7129L96.6797 94.7567L96.5186 95.0794L90.7178 95.2408L89.9121 95.5635L89.751 95.8863L91.8457 96.209L95.3906 96.5317L97.3242 97.1772L97.4854 97.6613L96.0352 98.3067L95.2295 98.4681H89.4287L88.4619 98.3067L88.623 97.8226L91.04 97.984H94.4238L95.5518 97.8226L95.3906 97.1772L94.9072 97.0158L89.4287 96.5317L88.623 96.209L88.4619 95.5635L89.1064 94.9181L90.7178 94.5954Z" fill="#FDFEFE"/>
<path d="M203.833 94.5954H210.278V95.0794H204.8L203.672 95.5635L202.866 96.3703L203.188 97.1772L203.672 97.6613L204.155 97.8226L210.439 97.984V98.3067L209.634 98.4681H203.833L202.383 98.1453L201.416 97.4999L201.094 97.0158V96.0476L202.222 95.0794L203.833 94.5954Z" fill="#FDFEFE"/>
<path d="M228.486 95.2408H232.031L233.159 95.5635L233.481 96.209L232.837 96.6931L232.192 96.8544H229.614L227.681 96.5317V95.7249L228.486 95.2408Z" fill="#DD120B"/>
<path d="M67.8369 96.6931H73.1543L73.96 97.1772L74.1211 97.6612L74.4434 97.8226L73.6377 97.984H67.998L67.8369 97.8226V96.6931Z" fill="#C90F11"/>
<path d="M124.395 78.6204H125.2L125.039 78.9431L127.134 79.2659L126.973 79.5886H126.65L126.489 80.0727L124.072 80.3954L123.428 80.5568L123.267 83.1386L122.944 83.4613L122.139 83.6227H119.883L118.755 83.2999V83.1386L122.783 82.9772V79.4272L123.105 79.1045L124.395 78.9431V78.6204Z" fill="#C90F10"/>
<path d="M52.6904 78.9431L54.624 79.2659L54.7852 80.7181L54.4629 82.9772L54.9463 83.1386L58.8135 83.2999V83.4613L56.2354 83.784L54.3018 83.2999L53.4961 82.6545L53.1738 82.009L52.6904 80.0727L52.5293 79.2659L52.6904 78.9431Z" fill="#CA0F10"/>
<path d="M260.391 76.0386H261.519L262.808 76.684L263.291 77.0068L264.419 77.1681V77.3295H263.452V77.6522H264.258V77.8136L266.675 77.9749V78.1363H261.519L260.874 78.2977L260.068 77.9749L259.907 77.1681L260.068 76.5227L259.907 76.2L260.391 76.0386Z" fill="#DE120B"/>
<path d="M125.522 95.2408H131.646L131.001 95.5635L131.162 96.6931L130.356 96.8544L130.034 96.5317L125.361 96.3704V95.4022L125.522 95.2408Z" fill="#DE120B"/>
<path d="M92.0068 74.1022H94.1016L94.585 74.425L92.4902 74.5863L92.3291 74.7477V77.1681L92.168 78.459H90.8789L90.5566 77.9749V76.3613L90.8789 74.909L91.5234 74.2636L92.0068 74.1022Z" fill="#C90F10"/>
<path d="M137.607 43.4432H160.972V43.6046L159.844 43.766L153.882 43.9273H140.024L138.091 43.766L137.607 43.4432Z" fill="#C90F11"/>
<path d="M128.584 29.7274L128.906 29.8887L127.617 30.8569L126.812 31.9865V40.5387L127.617 41.1842L128.262 41.8296L127.456 41.5069L126.328 40.8614L126.006 39.0864V36.1819L126.167 31.9865L126.65 31.1796L127.939 30.0501L128.584 29.7274Z" fill="#E0130B"/>
<path d="M60.4248 94.9181H62.0361L62.6807 95.0795L62.8418 95.4022V98.1454L61.3916 98.3067L61.0693 98.1454L60.9082 96.0476L60.7471 95.2408L60.2637 95.0795L60.4248 94.9181Z" fill="#F2FEFE"/>
<path d="M65.0977 74.7477H65.2588V78.459L63.9697 78.6204L64.1309 79.1045L65.2588 79.2658V79.9113H64.7754L64.6143 80.234L63.8086 80.0727L63.0029 79.4272V79.1045L63.6475 78.459H63.9697V76.0386H64.292L64.4531 75.3931L64.6143 75.0704H65.0977V74.7477Z" fill="#CA0F10"/>
<path d="M51.0791 75.7159L54.1406 75.8772L54.624 76.0386V78.2977L54.3018 78.459H53.1738V76.8454L52.207 76.3613L51.0791 76.0386V75.7159Z" fill="#CB0F10"/>
<path d="M255.718 75.3931H256.04V75.7159L255.396 76.2L255.557 78.1363L255.073 78.459L253.784 78.6204V77.1681L254.106 76.2L254.912 75.8772V75.5545L255.718 75.3931Z" fill="#CC0F10"/>
<path d="M138.413 82.1704H138.574V83.4613L137.607 83.6227H128.101L127.456 83.2999L129.39 83.1386H138.413V82.1704Z" fill="#CF100F"/>
<path d="M223.491 96.5317L223.813 97.1772L222.847 97.984L221.396 98.6294L220.913 98.7908H213.823L213.179 98.1453L213.662 97.984L214.79 98.3067H220.43L221.88 97.984L223.169 97.1772H223.491V96.5317Z" fill="#D5110D"/>
<path d="M166.611 95.0794H166.772L166.934 98.1453L168.706 98.3067H173.54L175.151 97.8226L175.635 97.6612L175.796 97.1772H176.118L176.279 96.5317V97.3385L175.474 98.1453L174.507 98.6294L173.54 98.7908H167.417L166.611 98.3067L166.45 95.5635L166.611 95.0794Z" fill="#D0100F"/>
<path d="M102.964 82.8158L103.608 82.9772L103.286 83.4613L102.642 83.6227H93.1348L92.4902 83.2999L102.48 83.1386L102.964 82.8158Z" fill="#C90F10"/>
<path d="M116.177 96.3703H118.11L120.527 96.5317L120.85 96.8544V97.984L119.883 98.1453H118.594V97.8226L119.238 97.6613L119.399 97.0158L116.016 96.6931L116.177 96.3703Z" fill="#FDFEFE"/>
<path d="M169.351 36.1819L170.317 36.5046L171.768 37.4728L172.573 38.441L172.734 38.9251V40.3773L172.251 41.1842L170.479 42.4751L169.834 42.6364L170.317 42.1523L171.445 41.3455L171.929 40.3773V38.7637L170.962 37.3114L169.351 36.3433V36.1819Z" fill="#E0130B"/>
<path d="M85.4004 94.9181H85.8838L86.0449 95.4022V97.8226L85.7227 98.4681L85.4004 98.6294L83.7891 98.7908L82.3389 98.3067L82.0166 97.984L83.1445 98.1454H85.2393V95.5635H85.5615L85.4004 94.9181Z" fill="#CD0F0F"/>
<path d="M253.623 78.7818L255.557 79.5886L255.396 81.2022L255.234 81.6863L254.59 81.5249L254.106 80.8795L253.462 79.2659L253.623 78.7818Z" fill="#CB0F10"/>
<path d="M76.2158 75.3931L76.377 75.8772L75.5713 76.3613L72.3486 76.2L70.2539 76.0386L69.9316 77.6522H69.7705V75.8772L70.8984 75.7159L75.4102 75.5545L76.2158 75.3931Z" fill="#CA0F10"/>
<path d="M120.85 97.6613L121.172 98.1453L120.366 98.6294L119.722 98.7908H113.76L112.31 98.6294L112.148 98.3067H118.433L120.85 97.984V97.6613Z" fill="#CF100F"/>
<path d="M211.084 44.7341H212.695V45.0569L213.501 45.2182L213.018 45.8637H212.373L210.923 46.3478L210.278 47.6387L209.956 47.4773L210.439 46.3478L210.762 45.0569H211.084V44.7341Z" fill="#CA0F10"/>
<path d="M282.466 97.8226L283.11 97.984L281.982 98.4681L281.016 98.7908H274.893L273.281 98.1453L273.765 97.984L275.215 98.3067H280.693L282.144 97.984L282.466 97.8226Z" fill="#D2100E"/>
<path d="M215.435 74.5863H215.596L215.757 77.1681V78.1363L215.435 78.2977H214.307L214.629 77.8136H215.112V77.1681L214.629 77.0068L214.468 76.0386L214.629 75.2318H215.112L215.435 74.5863Z" fill="#CB0F10"/>
<path d="M178.374 58.45H182.241L188.364 58.6114L188.525 58.9341H182.08L178.374 58.6114V58.45Z" fill="#D2100E"/>
<path d="M70.5762 73.9409H74.2822L75.0879 74.1022V74.2636L73.7988 74.425L65.4199 74.5863L65.5811 74.1022H69.4482L70.5762 73.9409Z" fill="#C90F11"/>
<path d="M154.849 97.3385L155.01 97.8226L154.688 98.3067L153.076 98.7908H146.792L146.147 98.4681L152.432 98.3067L153.882 97.984L154.849 97.6613V97.3385Z" fill="#D1100E"/>
<path d="M185.142 79.1045L186.431 79.2659L187.397 79.5886V80.0727L187.075 80.234L186.914 81.3636L186.592 81.0408V80.234L185.464 80.5568L184.658 80.234L184.336 79.2659L185.142 79.1045Z" fill="#CA0F10"/>
<path d="M59.9414 73.9409L61.7139 74.1022L61.5527 74.425H52.0459V74.2636L53.335 74.1022L59.9414 73.9409Z" fill="#C90F11"/>
<path d="M171.768 80.234L172.251 80.5568L172.573 80.7181L172.09 82.1704L171.606 82.6545L171.284 83.1386L171.123 81.8477L170.479 81.5249L170.317 80.3954H170.64L170.801 80.8795H171.123L171.768 80.234Z" fill="#C90F11"/>
<path d="M136.479 81.0409H137.607L138.252 81.3636V81.8477H132.29L132.129 81.525L132.773 81.3636H135.513L136.479 81.0409Z" fill="#CE0F0F"/>
<path d="M50.2734 95.2408H50.7568L50.918 98.1454H52.3682H52.8516L52.5293 98.6294H50.7568L50.2734 97.8226L50.1123 97.0158L49.79 96.8544L49.9512 95.5635L50.2734 95.2408Z" fill="#C90F11"/>
<path d="M122.783 79.4272H122.944L123.105 81.0408L123.267 81.2022V83.1386L122.944 83.4613L122.139 83.6227H119.883L118.755 83.2999V83.1386L122.783 82.9772V79.4272Z" fill="#D2100E"/>
<path d="M188.203 97.8226L188.525 97.984L187.881 98.4681L186.753 98.7908H181.113L179.824 98.4681V98.3067H186.592L188.203 97.8226Z" fill="#D2100E"/>
<path d="M103.608 95.7249H104.414L105.703 96.8544V97.0158H102.642V96.5317L103.608 95.7249Z" fill="#DF120B"/>
<path d="M137.607 43.4432H145.342L145.02 43.766L141.475 43.9273L138.091 43.766L137.607 43.4432Z" fill="#D1100E"/>
<path d="M69.9316 81.2022L72.1875 81.3636H73.3154L74.9268 81.2022L75.8936 81.5249V81.8477H70.7373L69.9316 81.6863V81.2022Z" fill="#CE0F0F"/>
<path d="M155.171 77.9749L155.815 78.2977L155.977 79.1045L154.849 79.5886V82.9772L154.204 83.2999V79.4272L154.849 79.1045H155.493V78.2977L154.849 78.1363L155.171 77.9749Z" fill="#D1100E"/>
<path d="M140.83 94.7567H142.925L143.086 94.9181L143.247 97.8226L143.086 98.6294L142.28 98.7908L140.186 98.6294L140.024 98.1453L142.603 98.3067V95.5635L142.764 95.0794L140.83 94.9181V94.7567Z" fill="#D0100E"/>
<path d="M268.286 96.5317L269.092 96.6931L270.703 98.1453V98.3067H269.253L268.286 97.8226L267.964 96.8544H268.286V96.5317Z" fill="#F5FEFE"/>
<path d="M265.869 95.7249L266.514 95.8863L267.48 96.8544L267.319 97.1772L264.258 97.0158L264.902 96.209L265.869 95.7249Z" fill="#DE120B"/>
<path d="M214.146 79.1045H215.596L215.757 79.4272V81.0408L215.596 83.1386L215.112 82.8158L214.951 82.009L215.112 81.3636V79.9113L214.307 79.7499L214.146 79.1045Z" fill="#CF100F"/>
<path d="M139.219 78.9431L140.991 79.4272L141.152 79.5886V81.0409L140.83 82.3318L140.508 82.1704L140.83 79.5886L140.024 79.9113L139.863 80.234L138.252 79.7499V79.2659L139.219 78.9431Z" fill="#CB0F10"/>
<path d="M131.001 41.1842L136.963 41.5069L136.479 41.991L136.641 42.3137L135.674 42.4751V42.1523L134.868 41.991V41.6682H134.385L134.224 42.1523L132.935 41.991V41.6682L131.001 41.3455V41.1842Z" fill="#C90F11"/>
<path d="M212.695 82.8158H213.018L212.856 83.4613L211.729 83.6227H202.383V83.4613L209.795 83.2999L210.762 83.1386H212.695V82.8158Z" fill="#CC0F10"/>
<path d="M98.7744 73.9409H101.514L102.642 74.425V74.5863L96.5186 74.425L96.6797 74.1022L98.7744 73.9409Z" fill="#C90F11"/>
<path d="M241.699 96.0476H242.988L243.794 96.5317L243.955 97.0158L242.827 97.1772L241.055 97.0158V96.5317L241.699 96.0476Z" fill="#E0130B"/>
<path d="M78.9551 74.5863H79.1162V77.1681V77.6522V78.2977H78.1494V77.3295L78.3105 76.2L78.4717 75.3931H78.9551V74.5863Z" fill="#C90F11"/>
<path d="M138.252 75.5545L138.413 76.0386L136.479 76.3613L135.513 76.2L132.451 76.0386L132.773 75.7159L138.252 75.5545Z" fill="#CF100F"/>
<path d="M262.324 79.9113L262.969 80.0727L263.291 80.3954L263.13 81.0409L262.163 81.6863H260.391V81.5249H261.841L261.68 80.8795L261.519 80.0727L262.324 79.9113Z" fill="#DF120B"/>
<path d="M62.6807 95.4022H62.8418V97.8226H62.3584L61.7139 97.984L61.5527 97.3385L61.7139 96.0476L62.3584 95.8863L62.6807 95.4022Z" fill="#FEFEFE"/>
<path d="M170.962 38.7637L171.445 38.9251L171.606 40.0546L171.123 40.7001H170.801V40.3773L169.995 40.0546L170.156 39.2478L170.962 38.7637Z" fill="#C90F11"/>
<path d="M140.83 74.7477H140.991L141.152 76.8454V78.1363L140.991 78.2977H139.863L140.024 77.9749H140.669L140.508 77.0068L140.347 76.684V75.3931L140.83 74.7477Z" fill="#CB0F10"/>
<path d="M212.856 75.5545V76.0386L212.051 76.2H209.795L207.539 76.0386V75.8772L208.345 75.7159L212.856 75.5545Z" fill="#D0100F"/>
<path d="M265.063 93.7885H268.77L268.608 94.1113L265.386 94.2726L263.613 94.434L263.291 94.2726V93.9499L265.063 93.7885Z" fill="#FEFEFE"/>
<path d="M170.317 36.9887L171.123 37.3114L172.09 38.7637V40.3773L171.445 41.5069L170.962 41.6682L171.284 40.7001L171.768 40.216L171.606 38.6023H171.284L170.801 37.6342V37.3114L170.317 37.1501V36.9887Z" fill="#C90F11"/>
<path d="M115.854 94.9181H120.044L120.366 95.2408L119.238 95.5635L115.21 95.2408L115.854 94.9181Z" fill="#CC0F10"/>
<path d="M67.8369 96.6931H72.5098V96.8544H68.4814L68.6426 97.8226H69.7705V97.984H67.998L67.8369 97.8226V96.6931Z" fill="#DD120B"/>
<path d="M240.41 83.1386H242.344L242.021 83.4613L240.732 83.6227H237.51L236.543 83.4613V83.2999L240.41 83.1386Z" fill="#CC0F10"/>
<path d="M83.4668 79.1045H85.0781L84.5947 79.4272L83.7891 79.7499L83.9502 81.3636L84.5947 81.5249V81.6863H83.6279L83.3057 80.5568V79.2659L83.4668 79.1045Z" fill="#CE100F"/>
<path d="M203.511 56.8364H203.833L203.672 62.4841L202.222 62.9682H200.449V62.8068L202.866 62.4841L203.188 62.3227L203.35 61.6773L203.511 56.8364Z" fill="#C90F11"/>
<path d="M59.9414 96.3703L60.2637 96.5317L58.3301 98.4681L56.7188 98.7908L55.5908 98.6294L55.4297 98.3067L57.6855 98.1453L58.8135 97.4999L59.9414 96.3703Z" fill="#D1100E"/>
<path d="M62.6807 75.3931L63.1641 75.5545L62.6807 76.0386L61.5527 76.3613H59.458L59.1357 76.0386L59.2969 75.8772L62.1973 75.5545L62.6807 75.3931Z" fill="#CE100F"/>
<path d="M129.229 47.3159H130.518V47.6387L131.323 47.8L131.484 53.125L131.162 52.9637L131.001 51.8341V48.6069L131.162 47.9614L129.712 47.6387L129.229 47.3159Z" fill="#C90F11"/>
<path d="M62.6807 94.9181L63.1641 95.0795V98.1454L63.0029 98.4681L61.3916 98.6294L61.2305 98.3067L62.8418 98.1454L62.6807 94.9181Z" fill="#D3100E"/>
<path d="M148.403 96.8544H151.948L152.915 97.1772L153.076 97.6612L152.432 97.8226L152.109 97.4999L148.403 97.0158V96.8544Z" fill="#CF100F"/>
<path d="M169.028 40.0546L169.189 40.5387L168.384 41.3455L166.45 42.3137L165.483 42.6364L164.839 42.4751L167.095 41.6682L168.545 40.5387L169.028 40.0546Z" fill="#E0130B"/>
<path d="M101.03 81.3636L102.642 81.6863V81.8477H98.1299L97.3242 81.6863V81.5249L101.03 81.3636Z" fill="#CF100F"/>
<path d="M207.217 49.8978L207.539 50.0591L204.478 51.6728L203.027 52.3182L203.188 51.6728L205.928 50.3819L207.217 49.8978Z" fill="#D0100F"/>
<path d="M91.2012 96.8544H94.9072L95.5518 97.1772V97.8226L94.7461 97.6612V97.3385L91.2012 97.0158V96.8544Z" fill="#CF100F"/>
<path d="M106.187 83.1386H110.054L109.57 83.4613L107.798 83.784L106.187 83.4613V83.1386Z" fill="#CF100F"/>
<path d="M69.9316 79.5886H73.7988L73.4766 79.9113L72.5098 80.0727H70.2539L69.9316 80.8795H69.7705V79.7499L69.9316 79.5886Z" fill="#CC0F10"/>
<path d="M266.675 78.1363H267.642L267.803 78.9431H267.48L267.642 79.75V80.8795L267.158 81.6863L266.997 81.3636V78.7818L266.675 78.1363Z" fill="#E0130B"/>
<path d="M213.179 97.984L214.79 98.3067L215.273 98.4681L218.979 98.6294V98.7908H213.823L213.179 98.1453V97.984Z" fill="#CB0F10"/>
<path d="M148.242 82.009L148.887 82.3318L150.015 83.1386L153.882 83.2999V83.4613L152.432 83.6227H150.981L149.531 83.2999L148.242 82.3318V82.009Z" fill="#CC0F10"/>
<path d="M232.192 97.3385L233.804 97.6613L234.932 98.1453V98.3067H233.32L231.87 97.8226V97.4999L232.192 97.3385Z" fill="#F3FEFE"/>
<path d="M223.652 82.8158L224.458 82.9772L224.78 83.1386L228.486 83.2999L228.003 83.6227H224.78L223.652 82.9772V82.8158Z" fill="#D0100F"/>
<path d="M70.8984 75.7159H74.1211V75.8772H72.6709V76.2L70.2539 76.0386L69.9316 77.6522H69.7705V75.8772L70.8984 75.7159Z" fill="#D3100E"/>
<path d="M77.9883 95.8863L78.4717 96.0476L78.3105 98.4681L78.1494 98.6294H76.377L76.0547 98.3067L77.8271 98.1453L77.9883 95.8863Z" fill="#D1100E"/>
<path d="M220.913 43.6046L221.558 44.4114L221.88 44.8955L222.041 46.1864L221.396 46.8319L221.074 47.6387L220.913 46.9932L221.396 46.025L221.074 44.5728L220.913 43.6046Z" fill="#C90F11"/>
<path d="M194.971 83.1386H196.421L196.099 83.4613L195.454 83.6227H191.426V83.4613L194.971 83.1386Z" fill="#CF100F"/>
<path d="M96.8408 79.5886H100.225L100.063 79.9113L97.002 80.0727L96.8408 81.0408H96.6797V79.7499L96.8408 79.5886Z" fill="#CE100F"/>
<path d="M83.4668 74.425L83.7891 74.5863L83.9502 75.3931V77.1681L83.7891 77.8136H83.4668V74.425Z" fill="#CC0F10"/>
<path d="M178.374 78.7818H179.341L179.502 79.5886L179.341 79.7499H178.213L177.891 79.5886L178.052 78.9431L178.374 78.7818Z" fill="#D2100E"/>
<path d="M178.052 28.5978L178.857 28.9206L180.469 30.0501L181.436 30.6956V31.0183H181.758L181.597 31.341L181.274 31.1796V30.8569L180.469 30.5342L179.019 29.566L178.052 28.7592V28.5978Z" fill="#F1FFFE"/>
<path d="M139.219 27.6297H140.991V28.1137L139.702 28.4365L138.896 28.2751L138.574 27.9524L139.219 27.6297Z" fill="#C90F11"/>
<path d="M154.849 97.3385L155.01 97.8226L154.688 98.3067L153.076 98.7908H151.787L151.948 98.4681L153.882 97.984L154.849 97.6613V97.3385Z" fill="#CE0F0F"/>
<path d="M264.741 82.8158L265.386 82.9772L263.291 83.6227H260.068V83.4613L262.808 83.2999L264.741 82.8158Z" fill="#CD0F0F"/>
<path d="M145.503 79.7499L146.309 79.9113L145.825 80.0727L146.147 80.8795L145.825 81.0408V82.6545L145.503 82.8158V79.7499Z" fill="#C90F10"/>
<path d="M230.581 78.6204L230.742 79.1045L229.775 79.5886L229.131 79.7499L228.97 82.9772H228.809V79.4272L229.453 79.1045L230.42 78.9431L230.581 78.6204Z" fill="#CA0F10"/>
<path d="M113.438 34.4069L113.599 34.891L113.438 36.1819L113.599 37.7955L112.954 36.9887V35.0524L113.115 34.7296H113.438V34.4069Z" fill="#C90F11"/>
<path d="M192.876 80.3954L193.359 80.5567L193.682 81.0408V81.5249H192.07L192.393 80.8795L192.876 80.3954Z" fill="#C90F11"/>
<path d="M110.215 80.3954H111.182L111.343 80.5567V81.3636L110.859 81.2022L110.698 80.8795L110.376 82.8158H110.215V80.3954Z" fill="#CD0F0F"/>
<path d="M82.0166 97.984L85.2393 98.3067L85.0781 98.6294L83.7891 98.7908L82.3389 98.3067L82.0166 97.984Z" fill="#D1100E"/>
<path d="M64.9365 80.8795H65.0977V82.9772H65.4199L65.2588 83.2999L64.9365 83.1386V82.3318H64.4531L64.292 81.5249L64.9365 81.2022V80.8795Z" fill="#C90F10"/>
<path d="M171.929 78.7818H172.251V79.1045L173.218 79.4272L173.057 79.9113V79.5886H172.734L172.573 80.0727L171.929 79.9113L171.768 79.1045L171.929 78.7818Z" fill="#C90F10"/>
<path d="M224.136 74.7477H224.297L224.458 76.5227L224.619 77.1681L224.458 77.9749L224.136 77.8136L223.975 77.0068V75.5545L224.136 74.7477Z" fill="#C90F10"/>
<path d="M50.5957 97.1772H50.7568L50.918 98.1453H52.3682H52.8516L52.5293 98.6294H50.7568L50.4346 97.984L50.5957 97.1772Z" fill="#D2100E"/>
<path d="M115.854 82.9772H116.338V83.2999L115.532 83.6227H113.438L113.115 83.2999L115.693 83.1386L115.854 82.9772Z" fill="#CA0F10"/>
<path d="M226.875 95.2408H228.003L227.842 95.7249H227.52L227.358 96.3704L226.553 96.0476L226.875 95.2408Z" fill="#F2FEFE"/>
<path d="M223.491 96.5317L223.813 97.1772L222.847 97.984L221.88 98.4681H221.396V98.1453L223.008 97.3385L223.491 97.1772V96.5317Z" fill="#CE0F0F"/>
<path d="M220.913 80.0727L221.558 80.234L222.847 81.5249L222.686 82.009L221.88 81.2022L221.074 80.5568L220.913 80.0727Z" fill="#CF100F"/>
<path d="M122.783 74.425H123.105L123.428 76.0386L123.105 77.8136H122.944L122.783 74.425Z" fill="#C90F11"/>
<path d="M127.134 76.2H127.295V78.1363L126.489 78.459H126.006L126.167 77.9749L127.134 77.8136V76.2Z" fill="#C90F11"/>
<path d="M232.354 98.1454H233.32L233.481 98.3067L234.932 98.4681L234.771 98.7908L232.837 98.6294L232.354 98.1454Z" fill="#CB0F10"/>
<path d="M62.6807 94.9181L63.1641 95.0795V98.1454H63.0029L62.6807 94.9181Z" fill="#CA0F10"/>
<path d="M129.229 47.3159H130.518V47.6387L131.323 47.8V48.9296L131.001 49.0909L131.162 47.9614L129.712 47.6387L129.229 47.3159Z" fill="#CB0F10"/>
<path d="M119.561 97.1772L120.044 97.6612L120.688 97.4999L120.527 97.984L119.883 98.1453H118.594V97.8226H119.399L119.561 97.1772Z" fill="#F2FEFE"/>
<path d="M200.61 78.459L201.255 78.6204H200.933V79.1045L201.416 79.2659H200.127V78.6204L200.61 78.459Z" fill="#E0130B"/>
<path d="M233.159 97.4999L234.771 97.984L234.932 98.3067H233.32L233.481 97.984L233.159 97.8226V97.4999Z" fill="#FEFEFE"/>
<path d="M133.418 98.1454L135.513 98.3067V98.6294H133.901L133.418 98.4681V98.1454Z" fill="#CE0F0F"/>
<path d="M94.9072 96.0476L95.5518 96.209V96.5317H93.7793L93.1348 96.209L94.9072 96.0476Z" fill="#D0100F"/>
</g>
<defs>
<clipPath id="clip0_16_321">
<rect width="330" height="124" fill="white"/>
</clipPath>
</defs>
</svg>
