<svg width="157" height="59" viewBox="0 0 157 59" fill="none" xmlns="http://www.w3.org/2000/svg">
<g clip-path="url(#clip0_16_148)">
<path d="M0 0.017395H157V58.9826H0V0.017395Z" fill="#DF120B"/>
<path d="M68.6108 10.9198H73.6704L75.5869 11.0734L77.8101 11.3805L79.8032 11.7644L81.873 12.3018L83.6362 12.916L85.2461 13.6838L86.166 14.298L86.4727 14.5284V14.6819L86.7793 14.8355L87.1626 15.2194L87.4692 15.6033L87.9292 16.4478L88.0059 16.6781V17.753L87.6992 18.444L87.2393 19.2118L86.856 19.5957L85.936 20.2867L84.7095 20.9777L83.5596 21.5151L81.4897 22.2061L79.2666 22.7436L76.9668 23.1275L74.8203 23.3578L72.5972 23.5113L69.4541 23.5881L64.1646 25.354L63.8579 25.4308H63.0913L62.8613 25.2772L62.7847 24.8166V22.8203L61.7881 22.5132L59.6416 21.899L58.1851 21.3616L56.4219 20.4402L55.3486 19.5957L54.7354 18.9815L54.2754 18.2137L54.1221 17.6762V16.6014L54.4287 15.8336L54.812 15.2961H54.9653L55.1187 14.989L56.0386 14.2213L56.8818 13.6838L57.9551 13.1464L59.7949 12.4554L61.4048 11.9947L63.4746 11.534L65.9277 11.1501L68.6108 10.9198Z" fill="#FDFEFE"/>
<path d="M0 0.017395H157V0.478061L156.77 0.554838H0.613281V57.9845L1.1499 58.0613L157 58.1381V58.9826H0V0.017395Z" fill="#FDFEFE"/>
<path d="M89.6157 15.2961L91.4556 15.3729L94.2153 15.68L95.5952 15.9104L97.4351 16.2943L99.5815 16.9085L101.498 17.6762L102.495 18.2137L103.338 18.8279L104.258 19.6725L104.794 20.4402L105.024 21.208V22.0526L104.794 22.8203L104.181 23.6649H104.028L103.875 23.972L102.801 24.7398L101.728 25.354L100.348 25.9682L98.2017 26.6592L96.5151 27.1199L96.3618 27.2735V29.5768L96.1318 29.8071H95.2119L93.9854 29.4232L91.6089 28.5787L89.9224 28.0412L89.6157 27.9644L86.7026 27.8877L83.3296 27.6573L80.6465 27.2735L78.5 26.8128L77.1968 26.4289L75.4336 25.8147L73.9771 25.1237L73.1338 24.5862L72.6738 24.3559V24.2023L75.4336 23.972L77.9634 23.6649L80.1099 23.281L82.333 22.7436L84.6328 21.9758L84.9395 21.8222H85.7061L86.0894 22.1294L87.0093 22.4365L87.6226 22.5132H88.6191L89.3857 22.3597L90.229 22.0526L90.8423 21.6687L90.689 21.3616L89.9224 20.9777L89.1558 20.7474L87.6226 20.5938V20.3635L88.3125 19.9028L89.0024 19.2886L89.5391 18.444L89.6924 18.0601L89.769 17.5995V16.6781L89.6157 15.9871L89.3091 15.6033V15.3729L89.6157 15.2961Z" fill="#FDFEFE"/>
<path d="M65.4678 13.0696H67.9976L70.0674 13.3767L71.2173 13.6838L72.1372 14.0677L72.9038 14.5284L73.3638 14.9123V15.1426L75.7402 15.5265L77.1968 15.9104L79.9565 16.9085L81.1831 17.4459L81.7964 17.9066L82.103 18.2905L82.1797 18.5208V19.2118L81.9497 19.5957L81.1064 20.2099L79.8032 20.7474L78.1934 21.1312L76.2002 21.3616H65.5444L64.5479 21.208L62.938 20.6706L60.8682 19.9028L60.1016 19.4421L59.9482 18.5976V17.2156L60.0249 15.2194L60.2549 14.8355L60.8682 14.298L62.0181 13.7606L63.3213 13.3767L64.7012 13.1464L65.4678 13.0696Z" fill="#FEFEFE"/>
<path d="M0 0.017395H157V0.478061L156.77 0.554838H0.613281L0.536621 57.8309H0V0.017395Z" fill="#FDFEFE"/>
<path d="M65.4678 13.0696H67.9976L70.0674 13.3767L71.2173 13.6838L72.1372 14.0677L72.9038 14.5284L73.3638 14.9123V15.1426L75.7402 15.5265L77.1968 15.9104L79.9565 16.9085L81.1831 17.4459L81.7964 17.9066L82.103 18.2905L82.1797 18.5208V19.2118L81.9497 19.5957L81.1064 20.2099L79.8032 20.7474L78.1934 21.1312L76.2002 21.3616H65.5444L64.5479 21.208L62.938 20.6706L60.8682 19.9028L60.1016 19.4421L59.9482 18.5976V17.2156L60.0249 15.2194L60.2549 14.8355L60.8682 14.298L62.0181 13.7606L63.3213 13.3767L64.7012 13.1464L65.4678 13.0696ZM65.4678 13.7606L63.9346 14.0677L62.708 14.5284L62.0181 15.0658L61.8647 15.2961L61.7881 18.9815L61.9414 19.2886L62.6313 19.5957L71.8306 19.6725L73.8237 19.5957L75.2036 19.3654L76.4302 18.9815L77.1201 18.5976L77.5801 18.1369L77.6567 17.5995L77.3501 17.1388L76.8901 16.7549L75.8169 16.2943L74.8203 16.0639L72.6738 15.9104L71.7539 15.68L71.6006 15.0658L70.9873 14.6051L70.144 14.2213L68.9175 13.9141L67.7676 13.7606H65.4678Z" fill="#DE120B"/>
<path d="M50.6724 35.4886H52.9722L53.5088 35.9493L54.2754 37.5616L54.6587 37.4849L55.1187 36.7171L55.4253 36.0261L55.7319 35.6422L56.0386 35.4886H58.3384L58.415 35.5654L58.4917 37.2545L59.0283 37.4081V37.6384L58.4917 37.792V39.4811L58.415 39.5579H56.5752L56.4219 39.4043V38.4062L55.8853 38.483L55.7319 39.0972L55.3486 39.4811L55.1187 39.5579H53.8154L53.2021 39.0204L52.8955 38.3294H52.4355L52.3589 39.4811L52.2056 39.5579H50.519L50.4424 39.4811V37.7152L49.7524 37.6384L49.8291 37.3313H50.4424V35.5654L50.6724 35.4886Z" fill="#FDFEFE"/>
<path d="M0 0.324501L0.306641 0.631612L0.383301 1.55294L0.459961 1.7065L0.536621 57.8309H0V0.324501Z" fill="#F1FFFE"/>
<path d="M103.491 35.4119H104.488L104.948 35.5654L105.484 36.1029L106.174 36.9474L106.328 37.101L106.788 37.1778V35.6422L106.864 35.4887L107.171 35.4119H108.321L108.781 35.4887L108.857 37.2545L109.471 37.3313V37.6384L108.781 37.7152V39.5579L108.551 39.6346H106.941L106.174 39.0972L105.484 38.3294L105.024 37.9455L104.641 37.8688V39.4811L104.411 39.6346H102.878L102.648 39.5579L102.571 39.4043V37.6384H101.958V37.3313H102.571V35.719L102.648 35.4887L103.491 35.4119Z" fill="#FDFEFE"/>
<path d="M68.1509 35.4119H69.1475L69.7607 35.8725L70.4507 36.6403L70.604 37.0242L71.2939 37.101L71.3706 35.5654L71.5239 35.4887H73.2871L73.3638 35.5654V37.2545L73.9771 37.3313V37.6384L73.4404 37.792V39.4811L73.3638 39.5579H71.2939L70.6807 39.0972L69.7607 38.0991L69.3774 37.8688H69.1475V39.4811L69.0708 39.5579H67.1543L67.0776 39.4043V37.8688L67.001 37.7152L66.4644 37.6384L66.3877 37.4081L67.0776 37.1778V36.0261L67.231 35.4887L68.1509 35.4119Z" fill="#FDFEFE"/>
<path d="M83.7896 35.4886H86.3193L86.396 35.5654L86.4727 36.1796L86.856 36.3332L87.0859 37.101L88.0059 37.4849V37.6384L87.4692 37.792L87.5459 38.1759L87.9292 38.7901L88.0059 39.5579L87.0093 39.6346L86.0127 39.5579L85.7827 39.174L85.7061 38.7901H84.2495L84.0195 39.4043L83.7129 39.5579H81.873L81.7197 39.3275L82.103 38.7133L82.1797 38.4062L82.563 37.9455L82.6396 37.792L82.103 37.7152L82.0264 37.4849L82.6396 37.1778L83.0996 36.6403L83.4062 35.8725L83.7896 35.4886Z" fill="#FEFEFE"/>
<path d="M132.469 35.4119H134.309L134.232 35.6422L133.772 35.9493L132.392 36.9474L132.085 37.101L132.392 37.4081L133.005 37.9455L133.849 38.7133L134.462 39.2508L134.539 39.5579H132.469L132.009 39.2508L131.242 38.483L131.089 38.4062L130.399 38.3294L130.552 39.0204L130.399 39.5579L129.632 39.6346H128.866L128.559 39.5579L128.482 39.0972L128.559 37.7152L127.946 37.6384L127.792 37.4081L128.252 37.2545H128.559L128.482 35.9493L128.559 35.4887H130.476V36.0261L130.322 36.41L131.089 36.1797L131.855 35.6422L132.085 35.4887L132.469 35.4119Z" fill="#FEFEFE"/>
<path d="M123.806 35.3351L125.186 35.4119L126.106 35.6422L126.873 36.0261L127.179 36.41L127.103 36.6403L126.719 36.7939H125.799L125.109 36.6403L124.649 36.3332L124.419 36.2564H123.883L123.653 36.3332L123.576 36.4868V38.6365L123.883 38.7901H124.726L125.186 38.483L125.109 38.1759L124.189 37.792L124.113 37.7152V37.2545L124.419 37.101L126.873 37.1778L127.103 37.4849V38.7133L126.949 39.0204L126.183 39.4043L125.186 39.6346H123.423L122.12 39.3275L121.506 38.9436L121.43 38.6365L121.506 37.8688L120.816 37.5616V37.4081L121.506 37.1778L121.43 36.2564L122.043 35.7958L122.886 35.4887L123.806 35.3351Z" fill="#FEFEFE"/>
<path d="M90.9956 35.4119H92.6055L93.832 35.719L94.4453 36.0261L94.5986 36.1797V36.7171L94.4453 36.7939H92.9121L92.5288 36.6403L92.3755 36.3332L92.2222 36.2564H91.3789L90.9956 36.4868L90.9189 38.1759L90.9956 38.6365L91.3789 38.7901H92.2222L92.5288 38.6365L92.6055 38.1759L91.9155 37.8688L91.6855 37.7152L91.7622 37.2545L91.8389 37.1778H94.3687L94.5986 37.4081L94.6753 38.3294L94.522 39.0204L93.7554 39.4043L92.7588 39.6346L91.6089 39.7114L90.459 39.5579L89.5391 39.2508L89.0791 38.8669V37.8688L88.5425 37.7152V37.4081L89.0791 37.1778V36.6403L89.0024 36.41L89.2324 36.0261L89.8457 35.719L90.5356 35.4887L90.9956 35.4119Z" fill="#FEFEFE"/>
<path d="M113.074 35.2583H114.147L115.374 35.4886L116.447 36.0261V36.2564L116.37 36.3332L115.833 36.41H114.53L113.917 36.1029H113.304L113.15 36.2564L112.69 36.3332V36.4868L113.15 36.6403L113.84 36.9474L114.76 37.1778L115.987 37.8688L116.37 38.1759L116.523 38.7133L116.217 39.0972L115.45 39.4811L114.377 39.6346H113.15L111.924 39.4811L111.004 39.0972L110.544 38.6365V38.483L110.774 38.4062L112.077 38.3294L112.614 38.483L113.38 38.8669H113.994L114.454 38.6365V38.3294L113.764 38.0991L112.844 37.8688L112.154 37.7152L112 37.4081L110.927 36.8706L110.621 36.4868L110.697 36.1796L111.157 35.7958L112.23 35.4119L113.074 35.2583Z" fill="#FEFEFE"/>
<path d="M77.6567 35.2583H78.6533L79.7266 35.4886L80.6465 35.8725L81.0298 36.1029L80.8765 36.3332L80.3398 36.41H79.3433L78.73 36.2564L78.27 36.1029L77.6567 36.1796L77.1968 36.3332L77.2734 36.4868L78.27 36.9474L79.2666 37.1778L80.4932 37.8688L81.0298 38.3294V38.7901L80.4165 39.2508L79.7266 39.5579L79.1133 39.6346H77.7334L76.5068 39.4811L75.7402 39.174L75.0503 38.7133L74.9736 38.483L75.127 38.4062L76.5068 38.3294L77.0435 38.483L77.5801 38.7901L78.27 38.8669L78.8066 38.7133L79.0366 38.6365L78.6533 38.2526L77.8867 37.9455L76.7368 37.792L76.5835 37.7152L76.5068 37.4081L75.5869 36.9474L75.127 36.5635L75.2036 36.1796L75.8169 35.719L76.8135 35.4119L77.6567 35.2583Z" fill="#FEFEFE"/>
<path d="M96.1318 35.4886H101.038L101.268 35.6422L101.191 35.9493L101.038 36.0261L99.1216 36.1029L98.2017 36.1796L98.125 37.0242L98.7383 37.101L100.195 37.1778L100.501 37.2545V37.6384L100.271 37.792L98.6616 37.9455L98.2783 38.0991L98.125 38.3294L98.2017 38.7133L98.8149 38.8669L101.191 38.9436L101.268 39.0204L101.191 39.5579L100.271 39.6346H96.1318L96.0552 39.5579L95.9785 37.792L95.5952 37.6384V37.4081L95.9785 37.2545L96.0552 35.6422L96.1318 35.4886Z" fill="#FEFEFE"/>
<path d="M60.5615 35.4886H65.4678L65.7744 35.6422L65.6978 35.9493L65.5444 36.0261L62.708 36.1029V37.0242L63.0913 37.101L64.7778 37.1778L65.0078 37.4081L64.9312 37.792L64.4712 37.8688L62.7847 37.9455L62.6313 38.3294V38.7133L62.938 38.8669L65.5444 38.9436L65.7744 39.0972V39.5579L62.8613 39.6346H60.7148L60.5615 39.5579V37.7152L59.9482 37.6384V37.4081L60.5615 37.3313V35.4886Z" fill="#FEFEFE"/>
<path d="M43.9263 35.4886H48.6792L49.0625 35.6422V35.9493L48.8325 36.0261L45.9961 36.1796L45.9194 37.101H46.7627L48.0659 37.1778L48.2192 37.2545V37.7152L48.1426 37.792L47.5293 37.8688L45.9194 37.9455L45.9961 38.7901L46.686 38.8669L48.8325 38.9436L49.1392 39.0972L48.9858 39.4811L48.8325 39.5579H43.9263L43.8496 39.4811V37.7152L43.1597 37.6384L43.2363 37.3313H43.8496V35.5654L43.9263 35.4886Z" fill="#FEFEFE"/>
<path d="M31.124 35.4886H36.1069L36.1836 35.5654V35.9493L35.877 36.0261L33.1938 36.1029V37.0242L33.5005 37.101L35.3403 37.1778L35.4937 37.3313L35.417 37.7152L35.3403 37.792L33.2705 37.9455L33.1938 38.0991V38.7133L33.6538 38.8669L36.1069 38.9436L36.2603 39.174L36.1836 39.5579H31.124L31.0474 39.4811V37.7152H30.5107L30.4341 37.4081L31.0474 37.3313V35.5654L31.124 35.4886Z" fill="#FEFEFE"/>
<path d="M26.0645 35.4119H27.521L29.8208 35.4887L29.9741 35.719L29.8208 35.9493L29.2075 36.1029L28.2109 36.1797L28.0576 36.2564L27.981 37.2545L28.7476 37.3313V37.6384L28.0576 37.7152V39.4811L27.981 39.5579H26.0645L25.9111 39.4811L25.9878 37.7152H25.3745L25.1445 37.6384V37.4081L25.8345 37.2545H25.9878V36.1797L24.6079 36.1029L24.1479 35.8725V35.4887L26.0645 35.4119Z" fill="#FDFEFE"/>
<path d="M37.7168 35.4886H39.6333L39.71 35.5654V37.2545L40.3232 37.3313L40.3999 37.6384L39.71 37.7152V38.3294L39.7866 38.7901L40.3232 38.8669L42.4697 38.9436L42.623 39.174L42.4697 39.5579H37.7168V37.7152H37.1802L37.0269 37.6384V37.3313L37.6401 37.2545L37.7168 35.4886Z" fill="#FDFEFE"/>
<path d="M79.4199 17.9066L79.8032 17.9834L80.3398 18.2905L80.4165 19.0582L79.9565 19.5957L79.3433 19.9796L78.1167 20.3635L76.6602 20.5938L75.7402 20.6706H66.0044L65.0078 20.517L64.8545 20.4402V20.2867L73.8237 20.2099L75.6636 19.9796L77.4268 19.5189L78.6533 18.9047L79.1899 18.5208L79.4199 17.9066Z" fill="#FEFEFE"/>
<path d="M95.9785 35.4886H96.0552V37.2545L95.5952 37.4081V37.6384L95.9785 37.7152V39.3275L95.7485 39.4811L95.3652 39.4043V39.2508L94.6753 39.0972H94.5986V37.8688L94.4453 37.3313L94.3687 37.2545H91.8389L91.7622 37.7152L92.5288 38.0223L92.6821 38.1759L92.6055 38.6365L92.2222 38.8669H91.3789L90.9189 38.6365L90.8423 38.1759L90.9189 36.4868L91.1489 36.2564L91.3789 36.1796H92.2222L92.5288 36.4868L92.6055 36.6403L92.9121 36.7171H94.5986L94.522 36.0261L94.752 36.1029L94.8286 36.4868L95.0586 36.41L95.5186 35.719L95.9785 35.4886Z" fill="#CA0F10"/>
<path d="M128.559 35.2583H129.249L129.326 35.4119L128.636 35.4886L128.559 36.3332V37.2545L127.869 37.4849L128.559 37.7152V39.0972L128.482 39.4811H128.406L128.252 38.7133L128.329 38.483L127.562 38.6365L127.103 39.0204L127.026 38.7133V37.4849L126.873 37.2545L124.419 37.1778L124.189 37.2545V37.7152L125.109 38.0991L125.263 38.2526L125.186 38.5598L124.726 38.8669H123.883L123.5 38.6365V36.4868L123.653 36.2564L123.883 36.1796H124.419L125.033 36.4868L125.263 36.6403L125.799 36.7171H126.719L127.103 36.6403V36.1796L127.639 36.2564L128.099 36.0261L128.252 35.8725L128.559 35.2583Z" fill="#CB0F10"/>
<path d="M94.2153 20.5938H95.3652L96.2852 20.7474L97.2051 21.1312L97.5884 21.5919L97.4351 21.899L96.3618 22.4365L96.0552 22.5132L94.6753 22.59L93.5254 22.4365L92.6055 21.9758L92.2988 21.6687L92.3755 21.3616L92.9121 20.9777L93.7554 20.6706L94.2153 20.5938Z" fill="#DF120B"/>
<path d="M100.425 21.2848H101.191L101.728 21.4383L101.805 21.5151L101.728 22.1293L101.421 22.7436L100.885 23.4346L99.8882 24.2023L98.7383 24.8166L97.4351 25.2772H96.6685L96.1318 25.0469L96.2085 24.8166L98.125 23.8952L98.8916 23.3578L99.1216 23.1275H99.2749L99.4282 22.8203L99.8882 22.1293L100.118 21.4383L100.425 21.2848Z" fill="#DE120B"/>
<path d="M80.3398 45.0859H81.4897L82.7163 45.1626L83.2529 45.393L83.7129 45.8536V46.2375L83.3296 46.6214L82.563 46.8517H80.2632L79.4199 46.775L79.3433 46.6982V45.2394L79.4199 45.1626L80.3398 45.0859Z" fill="#FDFEFE"/>
<path d="M43.7729 35.2583H44.7695L44.9995 35.4119L44.0029 35.4886L43.9263 35.5654V36.7171L43.8496 37.3313L43.2363 37.4081L43.1597 37.6384L43.8496 37.7152L43.9263 39.4811H48.8325L49.2925 39.4043L49.1392 39.7114L48.8325 39.7882H44.3096L43.7729 39.7114L43.543 39.4811L43.0063 39.6346L42.0098 39.865L38.1001 39.7882L37.8701 39.6346H42.4697L42.5464 39.0972L42.4697 39.0204L40.3232 38.9436L39.7866 38.8669L39.6333 38.3294V37.7152L39.71 37.6384H40.4766L40.2466 37.792L39.8633 37.9455L39.9399 38.7133H40.9365L42.0098 38.6365H42.5464L42.7764 38.4062L42.623 37.6384L43.1597 37.1778L43.083 37.101V36.3332L43.2363 35.6422L43.543 35.3351L43.7729 35.2583Z" fill="#CC0F10"/>
<path d="M60.9448 14.3748L61.0981 14.4516L60.7915 14.7587L60.7148 15.2194L61.0981 15.3729L61.4048 15.5265L61.6348 15.2961V19.0583L62.0947 19.5189L61.7114 19.4421L61.4048 19.2118L60.7915 19.3654L60.4082 19.135L60.4849 19.4421L60.2549 19.2886V15.2194L60.8682 14.4516L60.9448 14.3748Z" fill="#C90F10"/>
<path d="M24.3013 45.1626H25.0679L25.6812 45.393L26.0645 45.7001V45.8536L26.3711 46.0072L26.9077 46.3143H27.291L28.0576 45.6233L28.7476 45.1626H29.5142L29.8208 45.2394L29.8975 45.393V46.6982L29.2075 46.775L28.9775 46.6214V45.7768L28.4409 46.0072L27.9043 46.5446L27.4443 46.775H26.5244L26.0645 46.4678L25.3745 45.8536L25.0679 45.7768V46.6214L24.9146 46.775H24.2246L24.1479 46.6982V45.8536L24.2246 45.2394L24.3013 45.1626Z" fill="#FDFEFE"/>
<path d="M107.784 45.1626H110.927L111.541 45.3162L111.847 45.6233L111.694 45.9304L111.157 46.1607H110.927V46.3911L111.694 46.6214L111.771 46.775H111.004L109.624 46.3143H108.397L108.474 46.775H107.784L107.708 46.6982V45.2394L107.784 45.1626Z" fill="#FDFEFE"/>
<path d="M62.7847 45.0859L63.3979 45.2394H63.5513V46.6214L64.4712 46.775V46.9285H63.7046L63.4746 46.8517V46.6982H63.3213V46.0072L62.8613 46.084V46.6214L61.1748 46.6982L59.6416 46.6214V46.0072L61.8647 45.9304L59.6416 45.8536V45.393L59.7183 45.3162L62.7847 45.2394V45.0859Z" fill="#CC0F10"/>
<path d="M131.625 45.1626H132.622L133.465 45.2394L133.925 45.4697L134.155 45.8536L134.079 46.3143L133.465 46.6214L133.082 46.6982H131.625L130.859 46.5446L130.629 46.3143V45.4697L131.089 45.2394L131.625 45.1626Z" fill="#DE120B"/>
<path d="M86.7026 45.1626H87.9292L88.8491 45.3162L89.2324 45.7001L89.3091 46.084L88.9258 46.4678L88.6191 46.6214L88.0825 46.6982H87.0859L86.0894 46.5446L85.7061 46.1607L85.7827 45.6233L86.0127 45.393L86.7026 45.1626Z" fill="#DE120B"/>
<path d="M102.648 45.1626H104.258L104.948 45.3162L105.561 45.7768V46.1607L104.948 46.5446L104.104 46.6982L102.418 46.6214L102.111 46.4678L101.881 46.1607L101.958 45.6233L102.648 45.1626Z" fill="#DF120B"/>
<path d="M91.3789 36.1797H92.2222L92.5288 36.4868L92.6055 36.6403L92.9121 36.7171L94.4453 36.7939V36.8707L92.9121 36.9474L94.4453 37.101H94.5986L94.9053 37.0242L94.8286 37.5617L94.5986 37.8688L94.4453 37.3313L94.3687 37.2545H91.8389L91.7622 37.7152L92.5288 38.0223L92.6821 38.1759L92.6055 38.6365L92.2222 38.8669H91.3789L90.9189 38.6365L90.8423 38.1759L90.9189 36.4868L91.1489 36.2564L91.3789 36.1797Z" fill="#DD120B"/>
<path d="M66.1577 14.0677L67.231 14.1445L67.5376 14.4516L67.0776 14.6819L65.6211 14.9123L64.8545 15.2194L64.5479 15.4497L64.3945 15.7568L64.0112 15.9871H63.168L62.7847 15.7568L62.708 15.4497L62.8613 15.1426L63.7046 14.6051L64.4712 14.298L65.2378 14.1445L66.1577 14.0677Z" fill="#DE120B"/>
<path d="M50.2891 35.3351H51.209L51.3623 35.4887L50.4424 35.5654V37.3313L49.8291 37.4081L49.7524 37.6384L50.4424 37.7152L50.519 39.4811L52.3589 39.5579L52.1289 39.7114L51.2856 39.865L50.3657 39.6346L50.1357 39.3275L49.9058 39.2508L49.8291 39.0972L49.7524 38.2526L49.4458 37.8688L49.5225 37.4849L49.5991 37.2545V36.2564L48.3726 36.3332L46.3794 36.1797V36.1029L49.1392 35.9493L49.2158 35.6422L49.2925 35.9493L49.7524 35.719L50.2891 35.3351Z" fill="#CB0F10"/>
<path d="M63.6279 45.1626H64.3179L65.4678 45.6233L66.3877 46.084L67.0776 46.3143L67.001 45.5465V45.2394L67.6143 45.1626L67.9209 45.2394V46.775L67.5376 46.8517L66.6943 46.6982L64.7012 45.7768L64.3945 45.7001V46.6982L64.3179 46.775H63.7812L63.4746 46.6214L63.5513 45.2394L63.6279 45.1626Z" fill="#FEFEFE"/>
<path d="M86.166 45.0091H88.7725L89.5391 45.2394L90.1523 45.7769L90.229 46.084L89.5391 46.6214L88.7725 46.8517H86.0894L85.3228 46.6214L84.8628 46.2375V45.7001L85.2461 45.3162L85.7827 45.0859L86.166 45.0091ZM86.7026 45.1626L86.0127 45.393L85.7827 45.6233L85.7061 46.1607L86.0894 46.5446L87.0859 46.6982H88.0825L88.7725 46.5446L89.2324 46.2375L89.3091 45.7769L88.9258 45.393L88.5425 45.2394L87.9292 45.1626H86.7026Z" fill="#FEFEFE"/>
<path d="M36.4136 45.1626L37.2568 45.2394L38.1768 45.6233L39.4033 46.2375L39.8633 46.3911L39.71 45.3162L39.7866 45.2394H40.5532L40.6299 45.4697V46.6982L40.5532 46.775H39.5566L37.7935 45.9304L37.1035 45.6233V46.6982L37.0269 46.775H36.4136L36.1836 46.6982V45.4697L36.2603 45.2394L36.4136 45.1626Z" fill="#FDFEFE"/>
<path d="M102.265 45.0091H104.948L105.561 45.1626L106.098 45.5465L106.251 45.8536V46.2375L105.868 46.5446L105.331 46.775L104.871 46.8517H102.188L101.498 46.6214L101.038 46.1607L101.115 45.6233L101.575 45.2394L102.265 45.0091ZM102.648 45.1626L101.958 45.6233L101.881 46.1607L102.265 46.5446L102.418 46.6214L104.181 46.6982L104.948 46.5446L105.561 46.1607V45.7769L104.948 45.3162L104.258 45.1626H102.648Z" fill="#FDFEFE"/>
<path d="M131.166 45.0091H133.542L134.385 45.2394L134.999 45.7769L135.075 46.0072L134.692 46.3911L134.232 46.6982L133.542 46.8517H130.936L130.246 46.6982L129.709 46.2375L129.632 45.7001L130.092 45.3162L130.706 45.0859L131.166 45.0091ZM131.625 45.1626L130.859 45.3162L130.629 45.4697V46.3143L130.859 46.5446L131.625 46.6982H133.082L133.849 46.4679L134.155 46.1607L134.079 45.7001L133.695 45.3162L133.465 45.2394L132.622 45.1626H131.625Z" fill="#FEFEFE"/>
<path d="M123.883 36.1797H124.419L125.033 36.4868L125.263 36.6403L125.799 36.7171V36.7939H125.339V36.9474H125.723V37.0242L126.873 37.101V37.1778H124.419L124.189 37.2545V37.7152L125.109 38.0991L125.263 38.2527L125.186 38.5598L124.726 38.8669H123.883L123.5 38.6365V36.4868L123.653 36.2564L123.883 36.1797Z" fill="#CE0F0F"/>
<path d="M126.183 45.1626H126.949L127.409 45.4697L128.252 46.2375L128.789 46.6982V46.775H128.099L127.486 46.4678L127.409 46.3911L125.569 46.3143L125.033 46.775L124.343 46.8517L124.189 46.775V46.6214L124.956 46.084L125.723 45.393L126.183 45.1626Z" fill="#FDFEFE"/>
<path d="M49.1392 45.1626H49.9058L50.5957 45.6233L51.1323 46.1607L51.8989 46.6982V46.775H51.0557L50.519 46.3911H48.6025L47.9893 46.775H47.146L47.4526 46.4678L48.2192 45.8536L48.8325 45.3162L49.1392 45.1626Z" fill="#FDFEFE"/>
<path d="M114.99 45.1626H115.68L116.217 45.4697L117.29 46.3911L117.597 46.5446L117.673 46.775H116.907L116.447 46.4678L115.987 46.3143L114.377 46.3911L113.994 46.6982L113.227 46.8517V46.5446L113.917 46.0072L114.454 45.4697L114.99 45.1626Z" fill="#FDFEFE"/>
<path d="M54.4287 45.0091H57.1118L57.2651 45.1626L56.8818 45.2394H55.1187L54.1221 45.393L53.6621 45.7769V46.2375L53.9688 46.4679L54.2754 46.5446H56.4219L56.7285 46.4679L56.8052 46.1607L55.1953 46.0072L55.272 45.8536H56.1919L57.3418 45.9304L57.4951 46.084V46.6214L57.1118 46.775L56.3452 46.8517H53.9688L53.2021 46.6214L52.8955 46.2375L52.8188 45.9304L53.0488 45.4697L53.3555 45.2394L54.4287 45.0091Z" fill="#FEFEFE"/>
<path d="M89.0024 15.2194L89.1558 15.2961L89.0791 15.6032L89.3091 15.9871L89.5391 16.6781V17.6762L89.3091 18.444L88.9258 19.0582L88.7725 19.135L88.9258 18.7511L88.6191 18.8279L88.3125 18.5208L88.5425 17.3691L88.3892 16.9852L88.2358 18.2137L88.0059 18.7511H87.7759L88.0059 18.444L88.1592 17.6762L88.2358 16.8317H88.3892L88.3125 16.6014V16.0639L88.5425 15.6032L88.8491 15.5265L89.0024 15.2194Z" fill="#C90F10"/>
<path d="M80.3398 45.3162H81.7197L82.4863 45.4697L83.0229 45.8536L82.9463 46.2375L82.4097 46.6214H80.4932L80.1865 46.4679V45.4697L80.3398 45.3162Z" fill="#DF120B"/>
<path d="M32.5039 45.0859H34.8804L35.3403 45.1626L35.2637 45.3162L32.4272 45.393L32.2739 45.8536H34.5737L34.4971 46.0072H32.2739L32.3506 46.5446L35.417 46.6214V46.775L34.4971 46.8517H32.5806L31.4307 46.775L31.354 46.6982V45.2394L31.4307 45.1626L32.5039 45.0859Z" fill="#FDFEFE"/>
<path d="M60.4849 45.0859H61.4814L62.7847 45.1626L62.6313 45.3162L59.7183 45.393L59.6416 45.8536H61.8647L61.9414 46.0072H59.6416V46.6214H62.7847V46.775L61.9414 46.8517H59.7949L58.7217 46.775L58.645 46.6982V45.2394L58.7217 45.1626L60.4849 45.0859Z" fill="#FDFEFE"/>
<path d="M119.82 45.0091H122.886L122.963 45.1626L122.81 45.2394H120.203L119.667 45.5465L119.437 45.6233L119.36 46.0072L119.743 46.4679L120.356 46.6214H122.963V46.775L122.81 46.8517L121.046 46.9285L121.506 47.1589V47.3124H120.586V47.0821L119.82 46.8517L119.13 46.6982L118.747 46.4679L118.593 46.1607V45.6233L119.053 45.2394L119.82 45.0091Z" fill="#FDFEFE"/>
<path d="M70.374 45.0091H73.2104L73.3638 45.1626L72.9805 45.2394H71.1406L70.2207 45.393L70.0674 45.5465L70.9873 45.7769L72.7505 45.9304L73.5171 46.2375V46.5446L72.9805 46.775L72.5205 46.8517H69.9907L69.3008 46.775V46.5446L70.9106 46.6214H71.9839L72.7505 46.4679L72.6738 46.2375L71.2939 46.084L69.8374 45.9304L69.3774 45.7001L69.3008 45.4697L69.6841 45.1626L70.374 45.0091Z" fill="#FDFEFE"/>
<path d="M43.1597 45.0091H45.5361L45.9961 45.0859L45.9194 45.2394L43.1597 45.3162L42.7764 45.4697L42.6997 45.6233L43.6963 45.7769L45.3828 45.9304L46.3027 46.2375L46.3794 46.4679L45.6895 46.775L45.3062 46.8517H42.5464L42.0864 46.775L42.1631 46.5446L43.313 46.6214H44.9229L45.4595 46.5446L45.3828 46.2375L45.1528 46.1607L42.5464 45.9304L42.1631 45.7769L42.0864 45.4697L42.3931 45.1626L43.1597 45.0091Z" fill="#FDFEFE"/>
<path d="M96.9751 45.0091H100.042V45.2394H97.4351L96.8984 45.4697L96.5151 45.8536L96.6685 46.2375L96.8984 46.4679L97.1284 46.5446L100.118 46.6214V46.775L99.7349 46.8517H96.9751L96.2852 46.6982L95.8252 46.3911L95.6719 46.1607V45.7001L96.2085 45.2394L96.9751 45.0091Z" fill="#FDFEFE"/>
<path d="M108.704 45.3162H110.391L110.927 45.4697L111.081 45.7769L110.774 46.0072L110.467 46.084H109.241L108.321 45.9304V45.5465L108.704 45.3162Z" fill="#DD120B"/>
<path d="M32.2739 46.0072H34.8037L35.187 46.2375L35.2637 46.4679L35.417 46.5446L35.0337 46.6214H32.3506L32.2739 46.5446V46.0072Z" fill="#C90F11"/>
<path d="M59.1816 37.4081H59.5649L59.4883 37.5617L60.4849 37.7152L60.4082 37.8688H60.2549L60.1782 38.0991L59.0283 38.2527L58.7217 38.3294L58.645 39.5579L58.4917 39.7114L58.1084 39.7882H57.0352L56.4985 39.6346V39.5579L58.415 39.4811V37.792L58.5684 37.6384L59.1816 37.5617V37.4081Z" fill="#C90F10"/>
<path d="M25.0679 37.5616L25.9878 37.7152L26.0645 38.4062L25.9111 39.4811L26.1411 39.5579L27.981 39.6346V39.7114L26.7544 39.865L25.8345 39.6346L25.4512 39.3275L25.2979 39.0204L25.0679 38.0991L24.9912 37.7152L25.0679 37.5616Z" fill="#CA0F10"/>
<path d="M123.883 36.1797H124.419L125.033 36.4868L125.263 36.6403L125.799 36.7171V36.7939H125.339V36.9474H125.723V37.0242L126.873 37.101V37.1778H124.419L124.113 37.2545L123.729 37.101L123.653 36.7171L123.729 36.41L123.653 36.2564L123.883 36.1797Z" fill="#DE120B"/>
<path d="M59.7183 45.3162H62.6313L62.3247 45.4697L62.4014 46.0072L62.0181 46.084L61.8647 45.9304L59.6416 45.8536V45.393L59.7183 45.3162Z" fill="#DE120B"/>
<path d="M43.7729 35.2583H44.7695L44.9995 35.4119L44.0029 35.4886L43.9263 35.5654V36.7171L43.8496 37.3313H43.2363L43.083 37.101V36.3332L43.2363 35.6422L43.543 35.3351L43.7729 35.2583Z" fill="#C90F10"/>
<path d="M65.4678 20.6706H76.5835V20.7474L76.0469 20.8241L73.2104 20.9009H66.6177L65.6978 20.8241L65.4678 20.6706Z" fill="#C90F11"/>
<path d="M61.1748 14.1445L61.3281 14.2212L60.7148 14.6819L60.3315 15.2194V19.2886L60.7148 19.5957L61.0215 19.9028L60.6382 19.7492L60.1016 19.4421L59.9482 18.5976V17.2156L60.0249 15.2194L60.2549 14.8355L60.8682 14.298L61.1748 14.1445Z" fill="#E0130B"/>
<path d="M28.7476 45.1626H29.5142L29.8208 45.2394L29.8975 45.393V46.6982L29.2075 46.775L29.0542 46.6982L28.9775 45.7001L28.9009 45.3162L28.6709 45.2394L28.7476 45.1626Z" fill="#F2FEFE"/>
<path d="M30.9707 35.5654H31.0474V37.3313L30.4341 37.4081L30.5107 37.6384L31.0474 37.7152V38.0223H30.8174L30.7407 38.1759L30.3574 38.0991L29.9741 37.792V37.6384L30.2808 37.3313H30.4341V36.1797H30.5874L30.6641 35.8725L30.7407 35.719H30.9707V35.5654Z" fill="#CA0F10"/>
<path d="M24.3013 36.0261L25.7578 36.1029L25.9878 36.1796V37.2545L25.8345 37.3313H25.2979V36.5635L24.8379 36.3332L24.3013 36.1796V36.0261Z" fill="#CB0F10"/>
<path d="M121.66 35.8725H121.813V36.0261L121.506 36.2564L121.583 37.1778L121.353 37.3313L120.74 37.4081V36.7171L120.893 36.2564L121.276 36.1029V35.9493L121.66 35.8725Z" fill="#CC0F10"/>
<path d="M65.8511 39.0972H65.9277V39.7114L65.4678 39.7882H60.9448L60.6382 39.6346L61.5581 39.5579H65.8511V39.0972Z" fill="#CF100F"/>
<path d="M106.328 45.9304L106.481 46.2375L106.021 46.6214L105.331 46.9285L105.101 47.0053H101.728L101.421 46.6982L101.651 46.6214L102.188 46.775H104.871L105.561 46.6214L106.174 46.2375H106.328V45.9304Z" fill="#D5110D"/>
<path d="M79.2666 45.2394H79.3433L79.4199 46.6982L80.2632 46.775H82.563L83.3296 46.5446L83.5596 46.4679L83.6362 46.2375H83.7896L83.8662 45.9304V46.3143L83.4829 46.6982L83.0229 46.9285L82.563 47.0053H79.6499L79.2666 46.775L79.1899 45.4697L79.2666 45.2394Z" fill="#D0100F"/>
<path d="M48.9858 39.4043L49.2925 39.4811L49.1392 39.7114L48.8325 39.7882H44.3096L44.0029 39.6346L48.7559 39.5579L48.9858 39.4043Z" fill="#C90F10"/>
<path d="M55.272 45.8536H56.1919L57.3418 45.9304L57.4951 46.084V46.6214L57.0352 46.6982H56.4219V46.5446L56.7285 46.4679L56.8052 46.1607L55.1953 46.0072L55.272 45.8536Z" fill="#FDFEFE"/>
<path d="M80.5698 17.2156L81.0298 17.3691L81.7197 17.8298L82.103 18.2905L82.1797 18.5208V19.2118L81.9497 19.5957L81.1064 20.2099L80.7998 20.2867L81.0298 20.0563L81.5664 19.6725L81.7964 19.2118V18.444L81.3364 17.753L80.5698 17.2924V17.2156Z" fill="#E0130B"/>
<path d="M40.6299 45.1626H40.8599L40.9365 45.393V46.5446L40.7832 46.8517L40.6299 46.9285L39.8633 47.0053L39.1733 46.775L39.02 46.6214L39.5566 46.6982H40.5532V45.4697H40.7065L40.6299 45.1626Z" fill="#CD0F0F"/>
<path d="M120.663 37.4849L121.583 37.8688L121.506 38.6365L121.43 38.8669L121.123 38.7901L120.893 38.483L120.586 37.7152L120.663 37.4849Z" fill="#CB0F10"/>
<path d="M36.2603 35.8725L36.3369 36.1029L35.9536 36.3332L34.4204 36.2564L33.4238 36.1797L33.2705 36.9474H33.1938V36.1029L33.7305 36.0261L35.877 35.9493L36.2603 35.8725Z" fill="#CA0F10"/>
<path d="M57.4951 46.4678L57.6484 46.6982L57.2651 46.9285L56.9585 47.0053H54.1221L53.4321 46.9285L53.3555 46.775H56.3452L57.4951 46.6214V46.4678Z" fill="#CF100F"/>
<path d="M100.425 21.2848H101.191V21.4383L101.575 21.5151L101.345 21.8222H101.038L100.348 22.0526L100.042 22.6668L99.8882 22.59L100.118 22.0526L100.271 21.4383H100.425V21.2848Z" fill="#CA0F10"/>
<path d="M134.385 46.5446L134.692 46.6214L134.155 46.8517L133.695 47.0053H130.782L130.016 46.6982L130.246 46.6214L130.936 46.775H133.542L134.232 46.6214L134.385 46.5446Z" fill="#D2100E"/>
<path d="M102.495 35.4886H102.571L102.648 36.7171V37.1778L102.495 37.2545H101.958L102.111 37.0242H102.341V36.7171L102.111 36.6403L102.035 36.1796L102.111 35.7958H102.341L102.495 35.4886Z" fill="#CB0F10"/>
<path d="M84.8628 27.8109H86.7026L89.6157 27.8877L89.6924 28.0412H86.626L84.8628 27.8877V27.8109Z" fill="#D2100E"/>
<path d="M33.5771 35.1815H35.3403L35.7236 35.2583V35.3351L35.1104 35.4119L31.124 35.4887L31.2007 35.2583H33.0405L33.5771 35.1815Z" fill="#C90F11"/>
<path d="M73.6704 46.3143L73.7471 46.5446L73.5938 46.775L72.8271 47.0053H69.8374L69.5308 46.8517L72.5205 46.775L73.2104 46.6214L73.6704 46.4679V46.3143Z" fill="#D1100E"/>
<path d="M88.0825 37.6384L88.6958 37.7152L89.1558 37.8688V38.0991L89.0024 38.1759L88.9258 38.7133L88.7725 38.5598V38.1759L88.2358 38.3294L87.8525 38.1759L87.6992 37.7152L88.0825 37.6384Z" fill="#CA0F10"/>
<path d="M28.5176 35.1815L29.3608 35.2583L29.2842 35.4119H24.7612V35.3351L25.3745 35.2583L28.5176 35.1815Z" fill="#C90F11"/>
<path d="M81.7197 38.1759L81.9497 38.3294L82.103 38.4062L81.873 39.0972L81.6431 39.3275L81.4897 39.5579L81.4131 38.9436L81.1064 38.7901L81.0298 38.2527H81.1831L81.2598 38.483H81.4131L81.7197 38.1759Z" fill="#C90F11"/>
<path d="M64.9312 38.5598H65.4678L65.7744 38.7133V38.9436H62.938L62.8613 38.7901L63.168 38.7133H64.4712L64.9312 38.5598Z" fill="#CE0F0F"/>
<path d="M23.918 45.3162H24.1479L24.2246 46.6982H24.9146H25.1445L24.9912 46.9285H24.1479L23.918 46.5446L23.8413 46.1607L23.688 46.084L23.7646 45.4697L23.918 45.3162Z" fill="#C90F11"/>
<path d="M58.415 37.792H58.4917L58.5684 38.5598L58.645 38.6365V39.5579L58.4917 39.7114L58.1084 39.7882H57.0352L56.4985 39.6347V39.5579L58.415 39.4811V37.792Z" fill="#D2100E"/>
<path d="M89.5391 46.5446L89.6924 46.6214L89.3857 46.8517L88.8491 47.0053H86.166L85.5527 46.8517V46.775H88.7725L89.5391 46.5446Z" fill="#D2100E"/>
<path d="M49.2925 45.5465H49.6758L50.2891 46.084V46.1607H48.8325V45.9304L49.2925 45.5465Z" fill="#DF120B"/>
<path d="M65.4678 20.6706H69.1475L68.9941 20.8241L67.3076 20.9009L65.6978 20.8241L65.4678 20.6706Z" fill="#D1100E"/>
<path d="M33.2705 38.6365L34.3438 38.7133H34.8804L35.647 38.6365L36.1069 38.7901V38.9436H33.6538L33.2705 38.8669V38.6365Z" fill="#CE0F0F"/>
<path d="M73.8237 37.101L74.1304 37.2545L74.207 37.6384L73.6704 37.8688V39.4811L73.3638 39.6346V37.792L73.6704 37.6384H73.9771V37.2545L73.6704 37.1778L73.8237 37.101Z" fill="#D1100E"/>
<path d="M67.001 45.0859H67.9976L68.0742 45.1626L68.1509 46.5446L68.0742 46.9285L67.6909 47.0053L66.6943 46.9285L66.6177 46.6982L67.8442 46.775V45.4697L67.9209 45.2394L67.001 45.1626V45.0859Z" fill="#D0100E"/>
<path d="M127.639 45.9304L128.022 46.0072L128.789 46.6982V46.775H128.099L127.639 46.5446L127.486 46.084H127.639V45.9304Z" fill="#F5FEFE"/>
<path d="M126.489 45.5465L126.796 45.6233L127.256 46.084L127.179 46.2375L125.723 46.1607L126.029 45.7769L126.489 45.5465Z" fill="#DE120B"/>
<path d="M101.881 37.6384H102.571L102.648 37.792V38.5598L102.571 39.5579L102.341 39.4043L102.265 39.0204L102.341 38.7133V38.0223L101.958 37.9455L101.881 37.6384Z" fill="#CF100F"/>
<path d="M66.2344 37.5616L67.0776 37.792L67.1543 37.8688V38.5598L67.001 39.174L66.8477 39.0972L67.001 37.8688L66.6177 38.0223L66.541 38.1759L65.7744 37.9455V37.7152L66.2344 37.5616Z" fill="#CB0F10"/>
<path d="M62.3247 19.5957L65.1611 19.7492L64.9312 19.9796L65.0078 20.1331L64.5479 20.2099V20.0564L64.1646 19.9796V19.826H63.9346L63.8579 20.0564L63.2446 19.9796V19.826L62.3247 19.6725V19.5957Z" fill="#C90F11"/>
<path d="M101.191 39.4043H101.345L101.268 39.7114L100.731 39.7882H96.2852V39.7114L99.8115 39.6346L100.271 39.5579H101.191V39.4043Z" fill="#CC0F10"/>
<path d="M46.9927 35.1815H48.2959L48.8325 35.4119V35.4887L45.9194 35.4119L45.9961 35.2583L46.9927 35.1815Z" fill="#C90F11"/>
<path d="M114.99 45.7001H115.604L115.987 45.9304L116.063 46.1607L115.527 46.2375L114.684 46.1607V45.9304L114.99 45.7001Z" fill="#E0130B"/>
<path d="M37.5635 35.4886H37.6401V36.7171V36.9474V37.2545H37.1802V36.7939L37.2568 36.2564L37.3335 35.8725H37.5635V35.4886Z" fill="#C90F11"/>
<path d="M65.7744 35.9493L65.8511 36.1797L64.9312 36.3332L64.4712 36.2564L63.0146 36.1797L63.168 36.0261L65.7744 35.9493Z" fill="#CF100F"/>
<path d="M124.803 38.0223L125.109 38.0991L125.263 38.2526L125.186 38.5598L124.726 38.8669H123.883V38.7901H124.573L124.496 38.483L124.419 38.0991L124.803 38.0223Z" fill="#DF120B"/>
<path d="M29.8208 45.393H29.8975V46.5446H29.6675L29.3608 46.6214L29.2842 46.3143L29.3608 45.7001L29.6675 45.6233L29.8208 45.393Z" fill="#FEFEFE"/>
<path d="M81.3364 18.444L81.5664 18.5208L81.6431 19.0583L81.4131 19.3654H81.2598V19.2118L80.8765 19.0583L80.9531 18.6744L81.3364 18.444Z" fill="#C90F11"/>
<path d="M67.001 35.5654H67.0776L67.1543 36.5635V37.1778L67.0776 37.2545H66.541L66.6177 37.101H66.9243L66.8477 36.6403L66.771 36.4868V35.8725L67.001 35.5654Z" fill="#CB0F10"/>
<path d="M101.268 35.9493V36.1797L100.885 36.2564H99.8115L98.7383 36.1797V36.1029L99.1216 36.0261L101.268 35.9493Z" fill="#D0100F"/>
<path d="M126.106 44.6252H127.869L127.792 44.7787L126.259 44.8555L125.416 44.9323L125.263 44.8555V44.702L126.106 44.6252Z" fill="#FEFEFE"/>
<path d="M81.0298 17.5995L81.4131 17.753L81.873 18.444V19.2118L81.5664 19.7492L81.3364 19.826L81.4897 19.3654L81.7197 19.135L81.6431 18.3672H81.4897L81.2598 17.9066V17.753L81.0298 17.6762V17.5995Z" fill="#C90F11"/>
<path d="M55.1187 45.1626H57.1118L57.2651 45.3162L56.7285 45.4697L54.812 45.3162L55.1187 45.1626Z" fill="#CC0F10"/>
<path d="M32.2739 46.0072H34.4971V46.084H32.5806L32.6572 46.5446H33.1938V46.6214H32.3506L32.2739 46.5446V46.0072Z" fill="#DD120B"/>
<path d="M114.377 39.5579H115.297L115.144 39.7114L114.53 39.7882H112.997L112.537 39.7114V39.6346L114.377 39.5579Z" fill="#CC0F10"/>
<path d="M39.71 37.6384H40.4766L40.2466 37.792L39.8633 37.9455L39.9399 38.7133L40.2466 38.7901V38.8669H39.7866L39.6333 38.3294V37.7152L39.71 37.6384Z" fill="#CE100F"/>
<path d="M96.8218 27.0431H96.9751L96.8984 29.7303L96.2085 29.9607H95.3652V29.8839L96.5151 29.7303L96.6685 29.6536L96.7451 29.3465L96.8218 27.0431Z" fill="#C90F11"/>
<path d="M28.5176 45.8536L28.6709 45.9304L27.751 46.8517L26.9844 47.0053L26.4478 46.9285L26.3711 46.775L27.4443 46.6982L27.981 46.3911L28.5176 45.8536Z" fill="#D1100E"/>
<path d="M29.8208 35.8725L30.0508 35.9493L29.8208 36.1797L29.2842 36.3332H28.2876L28.1343 36.1797L28.2109 36.1029L29.5908 35.9493L29.8208 35.8725Z" fill="#CE100F"/>
<path d="M61.4814 22.5132H62.0947V22.6668L62.478 22.7436L62.5547 25.2772L62.4014 25.2005L62.3247 24.663V23.1275L62.4014 22.8204L61.7114 22.6668L61.4814 22.5132Z" fill="#C90F11"/>
<path d="M29.8208 45.1626L30.0508 45.2394V46.6982L29.9741 46.8517L29.2075 46.9285L29.1309 46.775L29.8975 46.6982L29.8208 45.1626Z" fill="#D3100E"/>
<path d="M70.604 46.084H72.2905L72.7505 46.2375L72.8271 46.4679L72.5205 46.5446L72.3672 46.3911L70.604 46.1607V46.084Z" fill="#CF100F"/>
<path d="M80.4165 19.0582L80.4932 19.2886L80.1099 19.6725L79.1899 20.1331L78.73 20.2867L78.4233 20.2099L79.4966 19.826L80.1865 19.2886L80.4165 19.0582Z" fill="#E0130B"/>
<path d="M48.0659 38.7133L48.8325 38.8669V38.9437H46.686L46.3027 38.8669V38.7901L48.0659 38.7133Z" fill="#CF100F"/>
<path d="M98.585 23.7417L98.7383 23.8185L97.2817 24.5862L96.5918 24.8933L96.6685 24.5862L97.9717 23.972L98.585 23.7417Z" fill="#D0100F"/>
<path d="M43.3896 46.084H45.1528L45.4595 46.2375V46.5446L45.0762 46.4679V46.3143L43.3896 46.1607V46.084Z" fill="#CF100F"/>
<path d="M50.519 39.5579H52.3589L52.1289 39.7114L51.2856 39.865L50.519 39.7114V39.5579Z" fill="#CF100F"/>
<path d="M33.2705 37.8688H35.1104L34.957 38.0223L34.4971 38.0991H33.4238L33.2705 38.483H33.1938V37.9455L33.2705 37.8688Z" fill="#CC0F10"/>
<path d="M126.873 37.1778H127.333L127.409 37.5617H127.256L127.333 37.9455V38.483L127.103 38.8669L127.026 38.7133V37.4849L126.873 37.1778Z" fill="#E0130B"/>
<path d="M101.421 46.6214L102.188 46.775L102.418 46.8517L104.181 46.9285V47.0053H101.728L101.421 46.6982V46.6214Z" fill="#CB0F10"/>
<path d="M70.5273 39.0204L70.834 39.174L71.3706 39.5579L73.2104 39.6346V39.7114L72.5205 39.7882H71.8306L71.1406 39.6346L70.5273 39.174V39.0204Z" fill="#CC0F10"/>
<path d="M110.467 46.3143L111.234 46.4679L111.771 46.6982V46.775H111.004L110.314 46.5446V46.3911L110.467 46.3143Z" fill="#F3FEFE"/>
<path d="M106.404 39.4043L106.788 39.4811L106.941 39.5579L108.704 39.6346L108.474 39.7882H106.941L106.404 39.4811V39.4043Z" fill="#D0100F"/>
<path d="M33.7305 36.0261H35.2637V36.1029H34.5737V36.2564L33.4238 36.1796L33.2705 36.9474H33.1938V36.1029L33.7305 36.0261Z" fill="#D3100E"/>
<path d="M37.1035 45.6233L37.3335 45.7001L37.2568 46.8517L37.1802 46.9285H36.3369L36.1836 46.775L37.0269 46.6982L37.1035 45.6233Z" fill="#D1100E"/>
<path d="M105.101 20.7473L105.408 21.1312L105.561 21.3616L105.638 21.9758L105.331 22.2829L105.178 22.6668L105.101 22.3597L105.331 21.899L105.178 21.208L105.101 20.7473Z" fill="#C90F11"/>
<path d="M92.7588 39.5579H93.4487L93.2954 39.7114L92.9888 39.7882H91.0723V39.7114L92.7588 39.5579Z" fill="#CF100F"/>
<path d="M46.0728 37.8688H47.6826L47.606 38.0223L46.1494 38.0991L46.0728 38.5598H45.9961V37.9455L46.0728 37.8688Z" fill="#CE100F"/>
<path d="M39.71 35.4119L39.8633 35.4887L39.9399 35.8725V36.7171L39.8633 37.0242H39.71V35.4119Z" fill="#CC0F10"/>
<path d="M84.8628 37.4849H85.3228L85.3994 37.8688L85.3228 37.9455H84.7861L84.6328 37.8688L84.7095 37.5616L84.8628 37.4849Z" fill="#D2100E"/>
<path d="M84.7095 13.607L85.0928 13.7606L85.8594 14.298L86.3193 14.6051V14.7587H86.4727L86.396 14.9122L86.2427 14.8355V14.6819L85.8594 14.5284L85.1694 14.0677L84.7095 13.6838V13.607Z" fill="#F1FFFE"/>
<path d="M66.2344 13.1464H67.0776V13.3767L66.4644 13.5303L66.0811 13.4535L65.9277 13.2999L66.2344 13.1464Z" fill="#C90F11"/>
<path d="M73.6704 46.3143L73.7471 46.5446L73.5938 46.775L72.8271 47.0053H72.2139L72.2905 46.8517L73.2104 46.6214L73.6704 46.4679V46.3143Z" fill="#CE0F0F"/>
<path d="M125.953 39.4043L126.259 39.4811L125.263 39.7882H123.729V39.7114L125.033 39.6346L125.953 39.4043Z" fill="#CD0F0F"/>
<path d="M69.2241 37.9455L69.6074 38.0223L69.3774 38.0991L69.5308 38.483L69.3774 38.5598V39.3275L69.2241 39.4043V37.9455Z" fill="#C90F10"/>
<path d="M109.701 37.4081L109.777 37.6384L109.317 37.8688L109.011 37.9455L108.934 39.4811H108.857V37.792L109.164 37.6384L109.624 37.5617L109.701 37.4081Z" fill="#CA0F10"/>
<path d="M53.9688 16.371L54.0454 16.6014L53.9688 17.2156L54.0454 17.9834L53.7388 17.5995V16.6781L53.8154 16.5246H53.9688V16.371Z" fill="#C90F11"/>
<path d="M91.7622 38.2527L91.9922 38.3294L92.1455 38.5598V38.7901H91.3789L91.5322 38.483L91.7622 38.2527Z" fill="#C90F11"/>
<path d="M52.4355 38.2527H52.8955L52.9722 38.3294V38.7133L52.7422 38.6365L52.6655 38.483L52.5122 39.4043H52.4355V38.2527Z" fill="#CD0F0F"/>
<path d="M39.02 46.6214L40.5532 46.775L40.4766 46.9285L39.8633 47.0053L39.1733 46.775L39.02 46.6214Z" fill="#D1100E"/>
<path d="M30.894 38.483H30.9707V39.4811H31.124L31.0474 39.6347L30.894 39.5579V39.174H30.6641L30.5874 38.7901L30.894 38.6365V38.483Z" fill="#C90F10"/>
<path d="M81.7964 37.4849H81.9497V37.6384L82.4097 37.792L82.333 38.0223V37.8688H82.1797L82.103 38.0991L81.7964 38.0223L81.7197 37.6384L81.7964 37.4849Z" fill="#C90F10"/>
<path d="M106.634 35.5654H106.711L106.788 36.41L106.864 36.7171L106.788 37.101L106.634 37.0242L106.558 36.6403V35.9493L106.634 35.5654Z" fill="#C90F10"/>
<path d="M24.0713 46.2375H24.1479L24.2246 46.6982H24.9146H25.1445L24.9912 46.9285H24.1479L23.9946 46.6214L24.0713 46.2375Z" fill="#D2100E"/>
<path d="M55.1187 39.4811H55.3486V39.6346L54.9653 39.7882H53.9688L53.8154 39.6346L55.042 39.5579L55.1187 39.4811Z" fill="#CA0F10"/>
<path d="M107.938 45.3162H108.474L108.397 45.5465H108.244L108.167 45.8536L107.784 45.7001L107.938 45.3162Z" fill="#F2FEFE"/>
<path d="M106.328 45.9304L106.481 46.2375L106.021 46.6214L105.561 46.8518H105.331V46.6982L106.098 46.3143L106.328 46.2375V45.9304Z" fill="#CE0F0F"/>
<path d="M105.101 38.0991L105.408 38.1759L106.021 38.7901L105.944 39.0204L105.561 38.6365L105.178 38.3294L105.101 38.0991Z" fill="#CF100F"/>
<path d="M58.415 35.4119H58.5684L58.7217 36.1797L58.5684 37.0242H58.4917L58.415 35.4119Z" fill="#C90F11"/>
<path d="M60.4849 36.2564H60.5615V37.1778L60.1782 37.3313H59.9482L60.0249 37.101L60.4849 37.0242V36.2564Z" fill="#C90F11"/>
<path d="M110.544 46.6982H111.004L111.081 46.775L111.771 46.8517L111.694 47.0053L110.774 46.9285L110.544 46.6982Z" fill="#CB0F10"/>
<path d="M29.8208 45.1626L30.0508 45.2394V46.6982H29.9741L29.8208 45.1626Z" fill="#CA0F10"/>
<path d="M61.4814 22.5132H62.0947V22.6668L62.478 22.7436V23.281L62.3247 23.3578L62.4014 22.8204L61.7114 22.6668L61.4814 22.5132Z" fill="#CB0F10"/>
<path d="M56.8818 46.2375L57.1118 46.4679L57.4185 46.3911L57.3418 46.6214L57.0352 46.6982H56.4219V46.5446H56.8052L56.8818 46.2375Z" fill="#F2FEFE"/>
<path d="M95.4419 37.3313L95.7485 37.4081H95.5952V37.6384L95.8252 37.7152H95.2119V37.4081L95.4419 37.3313Z" fill="#E0130B"/>
<path d="M110.927 46.3911L111.694 46.6214L111.771 46.775H111.004L111.081 46.6214L110.927 46.5446V46.3911Z" fill="#FEFEFE"/>
<path d="M63.4746 46.6982L64.4712 46.775V46.9285H63.7046L63.4746 46.8517V46.6982Z" fill="#CE0F0F"/>
<path d="M45.1528 45.7001L45.4595 45.7769V45.9304H44.6162L44.3096 45.7769L45.1528 45.7001Z" fill="#D0100F"/>
</g>
<defs>
<clipPath id="clip0_16_148">
<rect width="157" height="59" fill="white"/>
</clipPath>
</defs>
</svg>
